<?xml version="1.0" standalone="no"?>
<!DOCTYPE svg PUBLIC "-//W3C//DTD SVG 1.1//EN" "http://www.w3.org/Graphics/SVG/1.1/DTD/svg11.dtd" >
<svg xmlns="http://www.w3.org/2000/svg">
<metadata>Generated by IcoMoon</metadata>
<defs>
<font id="icomoon" horiz-adv-x="1024">
<font-face units-per-em="1024" ascent="960" descent="-64" />
<missing-glyph horiz-adv-x="1024" />
<glyph unicode="&#x20;" horiz-adv-x="512" d="" />
<glyph unicode="&#xe900;" glyph-name="add-extensions" d="M897.597 418.026h96.369c16.488 0 29.854 13.366 29.854 29.854v0 289.347c0 16.488-13.366 29.854-29.854 29.854v0h-259.194v66.515c0 69.81-56.592 126.403-126.403 126.403s-126.403-56.592-126.403-126.403v0-66.396h-259.194c-16.488 0-29.854-13.366-29.854-29.854v0-259.314h-66.515c-69.81 0-126.403-56.592-126.403-126.403s56.592-126.403 126.403-126.403v0h66.396v-259.194c0-16.488 13.366-29.854 29.854-29.854v0h289.347c16.488 0 29.854 13.366 29.854 29.854v0 96.369c0 36.669 29.726 66.396 66.396 66.396s66.396-29.726 66.396-66.396v0-96.369c0-16.488 13.366-29.854 29.854-29.854v0h289.168c16.488 0 29.854 13.366 29.854 29.854v0 289.407c0 16.488-13.366 29.854-29.854 29.854v0h-96.071c-36.669 0-66.396 29.726-66.396 66.396s29.726 66.396 66.396 66.396v0zM897.597 225.228h66.396v-229.221h-229.221v66.396c0 69.81-56.592 126.403-126.403 126.403s-126.403-56.592-126.403-126.403v0-66.396h-229.161v259.433c0 16.488-13.366 29.854-29.854 29.854v0h-96.549c-36.669 0-66.396 29.726-66.396 66.396s29.726 66.396 66.396 66.396v0h96.369c16.488 0 29.854 13.366 29.854 29.854v0 259.254h259.374c16.488 0 29.854 13.366 29.854 29.854v0 96.549c0 36.669 29.726 66.396 66.396 66.396s66.396-29.726 66.396-66.396v0-96.369c0-16.488 13.366-29.854 29.854-29.854v0h259.194v-229.34h-66.097c-69.81 0-126.403-56.592-126.403-126.403s56.592-126.403 126.403-126.403v0z" />
<glyph unicode="&#xe901;" glyph-name="ad-groups" d="M893.972 556.192l-339.317 339.317c-16.303 16.42-38.887 26.583-63.846 26.583-49.684 0-89.961-40.277-89.961-89.961 0-18.895 5.825-36.429 15.777-50.905l-0.198 0.304-0.465-2.384c-25.848-126.825-86.83-236.545-172.237-321.804l-155.799-155.624c-16.298-16.274-26.379-38.769-26.379-63.618s10.082-47.344 26.378-63.617l84.845-84.845c16.274-16.298 38.769-26.379 63.618-26.379s47.344 10.082 63.617 26.378l21.227 21.227 148.579-148.695c16.281-16.281 38.774-26.352 63.618-26.352 49.689 0 89.97 40.281 89.97 89.97 0 24.845-10.070 47.337-26.352 63.618v0l-63.618 63.618 21.226 21.226c16.298 16.274 26.379 38.769 26.379 63.618s-10.082 47.344-26.378 63.617l-14.423 14.423c67.414 47.725 147.18 83.056 233.384 100.724l4.051 0.694 2.384 0.465c14.115-9.621 31.544-15.362 50.314-15.362 24.83 0 47.314 10.047 63.608 26.296l-0.002-0.002c16.325 16.305 26.423 38.84 26.423 63.735s-10.099 47.43-26.422 63.734l-0.001 0.001zM257.73 132.031c-5.428-5.417-12.921-8.767-21.196-8.767s-15.768 3.35-21.197 8.768v0l-84.844 84.844c-5.431 5.422-8.791 12.917-8.791 21.196s3.36 15.775 8.791 21.196v0l148.462 148.462 127.237-127.237zM554.655 47.187c4.873-5.317 7.858-12.432 7.858-20.245 0-16.572-13.434-30.006-30.006-30.006-7.813 0-14.928 2.986-20.267 7.879l0.022-0.020-148.462 148.462 42.393 42.393zM448.469 238.042c9.014 9.014 22.505 22.854 43.789 40.997l19.83-19.83c5.431-5.422 8.791-12.917 8.791-21.196s-3.36-15.775-8.791-21.196v0l-21.226-21.226zM449.748 321.606l-129.795 129.795c67.132 77.173 117.659 170.642 144.885 273.584l1.077 4.79 261.684-261.684c-107.503-28.564-200.72-79.247-278.484-147.176l0.808 0.691zM851.405 471.348c-5.428-5.417-12.921-8.767-21.196-8.767s-15.768 3.35-21.197 8.768v0l-339.317 339.317c-4.873 5.317-7.858 12.432-7.858 20.245 0 16.572 13.434 30.006 30.006 30.006 7.813 0 14.928-2.986 20.267-7.879l-0.022 0.020 339.317-339.317c5.47-5.437 8.855-12.965 8.855-21.284 0-8.232-3.315-15.69-8.683-21.111l0.002 0.002zM300.181 301.66c-5.428 5.417-12.921 8.767-21.196 8.767s-15.768-3.35-21.197-8.768v0l-42.393-42.393c-4.873-5.317-7.858-12.432-7.858-20.245 0-16.572 13.434-30.006 30.006-30.006 7.813 0 14.928 2.986 20.267 7.879l-0.022-0.020 42.393 42.393c5.417 5.428 8.767 12.921 8.767 21.196s-3.35 15.768-8.768 21.197v0zM692.417 960c-16.572 0-30.006-13.434-30.006-30.006v0-59.955c0-16.572 13.434-30.006 30.006-30.006s30.006 13.434 30.006 30.006v0 59.955c0 16.572-13.434 30.006-30.006 30.006v0zM932.294 720.065h-60.013c-16.572 0-30.006-13.434-30.006-30.006s13.434-30.006 30.006-30.006h60.013c16.572 0 30.006 13.434 30.006 30.006s-13.434 30.006-30.006 30.006v0zM893.565 891.264c-5.428 5.417-12.921 8.767-21.196 8.767s-15.768-3.35-21.197-8.768v0l-60.013-60.013c-4.873-5.317-7.858-12.432-7.858-20.245 0-16.572 13.434-30.006 30.006-30.006 7.813 0 14.928 2.986 20.267 7.879l-0.022-0.020 60.013 60.013c5.417 5.428 8.767 12.921 8.767 21.196s-3.35 15.768-8.768 21.197v0z" />
<glyph unicode="&#xe902;" glyph-name="audiences" d="M884.469 107.987h-0.534c-11.065 0-20.035-8.97-20.035-20.035s8.97-20.035 20.035-20.035v0h0.534c11.065 0 20.035 8.97 20.035 20.035s-8.97 20.035-20.035 20.035v0zM949.96 292.441c13.561 15.849 21.814 36.591 21.814 59.261 0 50.261-40.567 91.046-90.744 91.401h-0.88c-13.088 18.81-31.15 33.331-52.29 41.797l-0.78 0.276c13.492 15.828 21.7 36.519 21.7 59.127 0 50.268-40.578 91.058-90.765 91.401h-0.879c-13.104 18.757-31.163 33.233-52.289 41.664l-0.781 0.275c13.533 15.76 21.771 36.409 21.771 58.981 0 50.136-40.644 90.78-90.78 90.78s-90.78-40.644-90.78-90.78c0-22.573 8.239-43.221 21.873-59.102l-0.102 0.121c-21.889-8.714-39.933-23.188-52.777-41.565l-0.248-0.375h-1.736c-13.104 18.757-31.163 33.233-52.289 41.664l-0.781 0.275c13.533 15.76 21.771 36.409 21.771 58.981 0 50.136-40.644 90.78-90.78 90.78s-90.78-40.644-90.78-90.78c0-22.573 8.239-43.221 21.873-59.102l-0.102 0.121c-21.889-8.714-39.933-23.188-52.777-41.565l-0.248-0.375h-1.158c-0.029 0-0.063 0-0.097 0-5.106 0-10.115-0.421-14.991-1.23l0.53 0.073c-9.575-1.608-16.78-9.835-16.78-19.745 0-11.050 8.958-20.007 20.007-20.007 1.14 0 2.257 0.095 3.345 0.278l-0.117-0.016c2.433 0.421 5.238 0.663 8.099 0.668h0.004c0.13 0.001 0.283 0.002 0.437 0.002 28.351 0 51.334-22.983 51.334-51.334s-22.983-51.334-51.334-51.334c-21.165 0-39.338 12.808-47.191 31.097l-0.128 0.334c-3.082 7.327-10.201 12.377-18.499 12.377-11.053 0-20.013-8.96-20.013-20.013 0-2.754 0.556-5.379 1.563-7.767l-0.049 0.132c3.876-9.262 8.815-17.244 14.803-24.309l-0.11 0.134c-21.867-8.71-39.894-23.167-52.733-41.521l-0.248-0.374h-0.846c-50.211-0.355-90.778-41.14-90.778-91.401 0-22.67 8.253-43.412 21.918-59.386l-0.104 0.125c-43.67-17.396-73.984-59.289-74.040-108.27v-56.238c0.051-33.116 26.896-59.945 60.013-59.971h744.005c11.065 0 20.035 8.97 20.035 20.035s-8.97 20.035-20.035 20.035v0h-26.001v76.132c0.051 42.075 34.146 76.171 76.216 76.221h53.431c42.095-0.025 76.215-34.13 76.266-76.216v-56.236c-0.025-11.030-8.96-19.965-19.988-19.99h-22.263c-11.065 0-20.035-8.97-20.035-20.035s8.97-20.035 20.035-20.035v0h22.261c33.17 0 60.060 26.89 60.060 60.060v0 56.231c-0.056 48.988-30.369 90.881-73.254 108l-0.785 0.277zM931.795 351.61c-0.302-27.825-22.929-50.265-50.796-50.265-28.056 0-50.799 22.744-50.799 50.799s22.742 50.798 50.796 50.799v0c28.094-0.177 50.8-22.992 50.8-51.11 0-0.079 0-0.157-0.001-0.236v0.012zM808.782 544.211c-0.302-27.825-22.929-50.265-50.796-50.265-28.056 0-50.799 22.744-50.799 50.799s22.742 50.798 50.796 50.799v0c28.094-0.177 50.8-22.992 50.8-51.11 0-0.079 0-0.157-0.001-0.236v0.012zM635.014 787.923c0.159 0.002 0.346 0.003 0.534 0.003 28.351 0 51.334-22.983 51.334-51.334s-22.983-51.334-51.334-51.334c-28.35 0-51.332 22.981-51.334 51.331v0c0 0.066 0 0.145 0 0.224 0 28.118 22.706 50.934 50.783 51.11h0.017zM607.499 645.454h55.029c20.165-0.036 38.453-8.042 51.889-21.034l-0.021 0.020c-28.344-15.925-47.18-45.798-47.18-80.072 0-22.631 8.213-43.344 21.821-59.321l-0.107 0.129c-21.889-8.714-39.933-23.188-52.777-41.565l-0.248-0.375h-1.736c-13.104 18.757-31.163 33.233-52.289 41.664l-0.781 0.275c13.501 15.848 21.714 36.561 21.714 59.192 0 34.273-18.836 64.147-46.721 79.834l-0.459 0.238c13.417 12.968 31.704 20.973 51.86 21.014h0.008zM635.014 300.589c-0.212-0.003-0.461-0.005-0.711-0.005-28.351 0-51.334 22.983-51.334 51.334s22.983 51.334 51.334 51.334c28.351 0 51.334-22.983 51.334-51.334 0-0.108 0-0.216-0.001-0.323v0.017c0-0.027 0-0.059 0-0.091 0-28.056-22.605-50.832-50.595-51.108h-0.026zM512 249.21c-13.247 19.318-31.663 34.222-53.262 42.863l-0.787 0.278c13.573 15.87 21.834 36.637 21.834 59.333 0 34.268-18.83 64.137-46.708 79.827l-0.459 0.237c13.415 12.972 31.703 20.978 51.861 21.014h55.036c20.165-0.036 38.453-8.042 51.889-21.034l-0.021 0.020c-28.337-15.927-47.167-45.796-47.167-80.064 0-22.696 8.26-43.464 21.939-59.459l-0.105 0.126c-22.386-8.92-40.802-23.824-53.792-42.745l-0.257-0.397zM338.365 351.61c0.227 27.883 22.883 50.398 50.798 50.398 28.056 0 50.799-22.744 50.799-50.799s-22.744-50.799-50.799-50.799c-0.046 0-0.093 0-0.139 0h0.007c-28.036 0.252-50.666 23.038-50.666 51.109 0 0.032 0 0.064 0 0.096v-0.005zM512 595.367c0.159 0.002 0.346 0.003 0.534 0.003 28.351 0 51.334-22.983 51.334-51.334s-22.983-51.334-51.334-51.334c-28.35 0-51.332 22.981-51.334 51.331v0c-0.001 0.119-0.002 0.26-0.002 0.402 0 28.119 22.707 50.934 50.784 51.11h0.017zM389.031 787.923c0.199 0.003 0.433 0.004 0.668 0.004 28.351 0 51.334-22.983 51.334-51.334s-22.983-51.334-51.334-51.334c-28.351 0-51.334 22.983-51.334 51.334 0 0.014 0 0.028 0 0.042v-0.002c0 0.053 0 0.117 0 0.18 0 28.071 22.63 50.857 50.642 51.109h0.024zM309.604 624.262c13.395 13.033 31.68 21.1 51.85 21.192h55.091c20.164-0.041 38.451-8.046 51.889-21.035l-0.021 0.020c-28.361-15.92-47.211-45.803-47.211-80.088 0-22.624 8.207-43.33 21.807-59.305l-0.107 0.129c-21.889-8.714-39.933-23.188-52.777-41.565l-0.248-0.375h-1.736c-13.092 18.751-31.136 33.226-52.245 41.664l-0.78 0.275c13.501 15.848 21.714 36.561 21.714 59.192 0 34.273-18.836 64.147-46.721 79.834l-0.459 0.238zM238.369 452.853h55.162c20.177-0.062 38.464-8.099 51.887-21.121l-0.019 0.018c-28.337-15.927-47.167-45.796-47.167-80.064 0-22.696 8.26-43.464 21.939-59.459l-0.105 0.126c-22.383-8.925-40.798-23.828-53.792-42.745l-0.257-0.397c-13.236 19.312-31.637 34.214-53.218 42.863l-0.787 0.278c13.565 15.867 21.819 36.628 21.819 59.317 0 34.28-18.843 64.159-46.737 79.843l-0.46 0.238c13.417 12.968 31.704 20.973 51.86 21.014h0.008zM143.004 403.122c0.159 0.002 0.346 0.003 0.534 0.003 28.351 0 51.334-22.983 51.334-51.334s-22.983-51.334-51.334-51.334c-28.287 0-51.23 22.88-51.333 51.143v0.010c-0.001 0.119-0.002 0.26-0.002 0.402 0 28.119 22.707 50.934 50.784 51.11h0.017zM40.070 127.978v56.231c0.051 42.075 34.146 76.171 76.216 76.221h53.431c42.114 0 76.26-34.115 76.31-76.216v-76.226h-186.012c-11.011 0.050-19.921 8.976-19.946 19.988v0.002zM286.008 184.209c0.051 42.075 34.146 76.171 76.216 76.221h53.431c42.075-0.051 76.171-34.146 76.221-76.216v-76.226h-205.869zM531.99 184.209c0.051 42.075 34.146 76.171 76.216 76.221h53.431c42.075-0.051 76.171-34.146 76.221-76.216v-76.226h-205.869zM758.027 249.21c-13.247 19.318-31.663 34.222-53.262 42.863l-0.787 0.278c13.573 15.87 21.834 36.637 21.834 59.333 0 34.268-18.83 64.137-46.708 79.827l-0.459 0.237c13.415 12.972 31.703 20.978 51.861 21.014h55.036c20.165-0.036 38.453-8.042 51.889-21.034l-0.021 0.020c-28.337-15.927-47.167-45.796-47.167-80.064 0-22.696 8.26-43.464 21.939-59.459l-0.105 0.126c-22.386-8.92-40.802-23.824-53.792-42.745l-0.257-0.397zM192.868 552.092c2.145-0.873 4.633-1.38 7.24-1.38 0.006 0 0.012 0 0.018 0h-0.001c8.436 0 15.66 5.192 18.651 12.554l0.048 0.135v0.312c0.863 2.152 1.363 4.646 1.363 7.257 0 11.043-8.952 19.996-19.996 19.996-8.432 0-15.645-5.219-18.585-12.604l-0.047-0.135v-0.312c-0.872-2.156-1.378-4.657-1.378-7.275 0-8.395 5.198-15.576 12.552-18.5l0.134-0.047z" />
<glyph unicode="&#xe903;" glyph-name="billing" d="M917.583 789.324h-810.942c-58.858-0.095-106.546-47.783-106.641-106.632v-469.319c0.095-58.858 47.783-106.546 106.632-106.641h810.951c58.694 0.285 106.179 47.869 106.305 106.573v469.378c-0.095 58.74-47.592 106.355-106.278 106.641h-0.027zM981.59 213.317c-0.064-35.313-28.689-63.919-64.004-63.951h-810.945c-35.294 0.064-63.887 28.657-63.951 63.945v469.372c0.19 35.197 28.736 63.664 63.945 63.727h810.948c35.337-0.032 63.975-28.67 64.007-64.004v-469.313zM1002.627 661.31h-981.31c-11.773 0-21.317-9.544-21.317-21.317v0-127.902c0-11.773 9.544-21.317 21.317-21.317v0h981.31c11.749 0.032 21.261 9.564 21.261 21.317 0 0 0 0 0 0v0 128.014c-0.095 11.693-9.564 21.142-21.255 21.205h-0.006zM981.31 533.296h-938.62v85.1h938.62v-85.324zM405.359 362.648h-256.028c-11.789 0-21.345-9.556-21.345-21.345s9.556-21.345 21.345-21.345v0h255.972c11.789 0 21.345 9.556 21.345 21.345s-9.556 21.345-21.345 21.345v0zM405.359 277.324h-256.028c-11.789 0-21.345-9.556-21.345-21.345s9.556-21.345 21.345-21.345v0h255.972c11.789 0 21.345 9.556 21.345 21.345s-9.556 21.345-21.345 21.345v0zM831.979 405.338h-42.69c-35.337-0.032-63.975-28.67-64.007-64.004v-42.693c0.032-35.337 28.67-63.975 64.004-64.007h42.693c35.337 0.032 63.975 28.67 64.007 64.004v42.693c-0.032 35.337-28.67 63.975-64.004 64.007h-0.003zM853.296 298.697c0-11.773-9.544-21.317-21.317-21.317v0h-42.69c-11.773 0-21.317 9.544-21.317 21.317v0 42.634c0 11.773 9.544 21.317 21.317 21.317v0h42.69c11.773 0 21.317-9.544 21.317-21.317v0z" />
<glyph unicode="&#xe904;" glyph-name="bulk-action" d="M964.849 597.78h-738.991l635.531 174.164c8.158 2.659 13.949 10.197 13.949 19.087 0 11.064-8.97 20.034-20.034 20.034-1.602 0-3.16-0.188-4.653-0.543l0.136 0.027-33.78-9.213-127.735 85.547 109.090 30.197c6.503 1.841 13.971 2.899 21.686 2.899 30.428 0 57.011-16.463 71.327-40.968l0.211-0.391c3.613-5.611 9.828-9.273 16.899-9.273 11.064 0 20.034 8.97 20.034 20.034 0 3.39-0.842 6.583-2.328 9.382l0.053-0.108c-21.581 36.895-61.009 61.285-106.134 61.285-11.484 0-22.599-1.58-33.139-4.533l0.863 0.206-659.147-180.452c-52.051-14.92-89.501-62.089-89.501-118.005 0-11.474 1.577-22.58 4.526-33.113l-0.206 0.862 13.6-49.646v-516.716c0.083-67.565 54.833-122.314 122.389-122.397h682.772c67.565 0.083 122.314 54.833 122.397 122.389v519.137c0 0.044 0.001 0.095 0.001 0.147 0 10.973-8.854 19.878-19.807 19.96h-0.008zM944.815 440.871h-195.587l100.609 116.987h95.052zM573.893 440.871l100.609 116.987h122.471l-100.536-116.987zM398.413 440.871l100.755 116.987h122.471l-100.536-116.987zM222.933 440.871l100.901 116.987h122.471l-100.536-116.987zM96.88 440.871v116.987h173.872l-100.316-116.987zM299.779 780.206l127.808-85.839-117.718-32.098-127.881 85.693zM468.898 826.562l128.101-85.912-118.157-32.391-127.735 86.205zM765.825 787.079l-117.864-31.806-127.808 85.547 118.157 32.391zM131.245 733.557l127.442-85.254-167.657-45.917-9.066 32.976c-1.83 6.483-2.882 13.929-2.882 21.62 0 34.76 21.484 64.502 51.898 76.671l0.556 0.196zM944.522 58.105c-0.083-45.476-36.926-82.32-82.395-82.403h-682.48c-45.493 0.042-82.361 36.91-82.403 82.399v343.141h847.569zM839.307 187.814h-636.701c-0.362 0.023-0.784 0.037-1.21 0.037-11.064 0-20.034-8.97-20.034-20.034s8.97-20.034 20.034-20.034c0.426 0 0.848 0.013 1.267 0.039l-0.057-0.003h215.329v-43.87c0.657-10.531 9.359-18.824 19.997-18.824s19.341 8.293 19.995 18.767l0.003 0.057v43.87h125.98v-43.87c0-11.064 8.97-20.034 20.034-20.034v0 0c0 0 0 0 0 0 11.039 0 19.992 8.928 20.034 19.957v43.874h215.329c0.362-0.023 0.784-0.037 1.21-0.037 11.064 0 20.034 8.97 20.034 20.034s-8.97 20.034-20.034 20.034c-0.426 0-0.848-0.013-1.267-0.039l0.057 0.003zM182.646 286.668c0-11.064 8.97-20.034 20.034-20.034v0h636.701c0.362-0.023 0.784-0.037 1.21-0.037 11.064 0 20.034 8.97 20.034 20.034s-8.97 20.034-20.034 20.034c-0.426 0-0.848-0.013-1.267-0.039l0.057 0.003h-636.774c-11.007-0.041-19.919-8.953-19.961-19.957v-0.004zM913.301 812.377c0-11.064 8.97-20.034 20.034-20.034s20.034 8.97 20.034 20.034c0 11.064-8.97 20.034-20.034 20.034v0c-11.064 0-20.034-8.97-20.034-20.034v0z" />
<glyph unicode="&#xe905;" glyph-name="calendar" d="M557.999 231.99c0.18-43.982 35.786-79.587 79.75-79.767h94.036c43.982 0.18 79.587 35.786 79.767 79.75v94.249c-0.18 43.982-35.786 79.587-79.75 79.767h-94.036c-43.982-0.18-79.587-35.786-79.767-79.75v-0.017zM637.767 326.009h94.019v-94.019h-94.019zM831.069 527.767c0-14.685-23.809-26.589-53.178-26.589s-53.178 11.904-53.178 26.589c0 14.685 23.809 26.589 53.178 26.589s53.178-11.904 53.178-26.589zM618.356 527.767c0-14.685-11.904-26.589-26.589-26.589s-26.589 11.904-26.589 26.589c0 14.685 11.904 26.589 26.589 26.589s26.589-11.904 26.589-26.589zM983.797 256.027c22.086 0 39.99 17.904 39.99 39.99v0 423.99c0 0.016 0 0.035 0 0.054 0 88.33-71.5 159.961-159.78 160.172h-52.028v39.777c0.068 0.872 0.106 1.889 0.106 2.915 0 22.086-17.904 39.99-39.99 39.99s-39.99-17.904-39.99-39.99c0-1.026 0.039-2.042 0.114-3.049l-0.008 0.134v-39.777h-182.242v39.777c0.068 0.872 0.106 1.889 0.106 2.915 0 22.086-17.904 39.99-39.99 39.99s-39.99-17.904-39.99-39.99c0-1.026 0.039-2.042 0.114-3.049l-0.008 0.134v-39.777h-180.221v39.777c-1.566 20.796-18.823 37.075-39.884 37.075s-38.318-16.28-39.876-36.941l-0.008-0.134v-39.777h-49.988c-0.016 0-0.035 0-0.053 0-88.461 0-160.173-71.712-160.173-160.173 0-0.019 0-0.038 0-0.056v0.003-623.993c0.091-88.336 71.677-159.922 160.004-160.013h703.982c88.336 0.091 159.922 71.677 160.013 160.004v0.009c0.068 0.872 0.106 1.889 0.106 2.915 0 22.086-17.904 39.99-39.99 39.99s-39.99-17.904-39.99-39.99c0-1.026 0.039-2.042 0.114-3.049l-0.008 0.134c-0.18-43.982-35.786-79.587-79.75-79.767h-704.469c-43.982 0.18-79.587 35.786-79.767 79.75v624.010c0.18 43.982 35.786 79.587 79.75 79.767h50.005v-39.99c1.566-20.796 18.823-37.075 39.884-37.075s38.318 16.28 39.876 36.941l0.008 0.134v40.203h180.221v-39.99c1.566-20.796 18.823-37.075 39.884-37.075s38.318 16.28 39.876 36.941l0.008 0.134v39.99h181.976v-39.99c1.566-20.796 18.823-37.075 39.884-37.075s38.318 16.28 39.876 36.941l0.008 0.134v39.99h52.008c43.982-0.18 79.587-35.786 79.767-79.75v-424.007c0-0.064-0.001-0.14-0.001-0.216 0-22.086 17.904-39.99 39.99-39.99 0.187 0 0.374 0.001 0.561 0.004h-0.028zM299.287 208.698c0-14.685-23.809-26.589-53.178-26.589s-53.178 11.904-53.178 26.589c0 14.685 23.809 26.589 53.178 26.589s53.178-11.904 53.178-26.589zM299.287 527.767c0-14.685-23.809-26.589-53.178-26.589s-53.178 11.904-53.178 26.589c0 14.685 23.809 26.589 53.178 26.589s53.178-11.904 53.178-26.589zM299.287 368.233c0-14.685-23.809-26.589-53.178-26.589s-53.178 11.904-53.178 26.589c0 14.685 23.809 26.589 53.178 26.589s53.178-11.904 53.178-26.589zM458.822 368.233c0-14.685-11.904-26.589-26.589-26.589s-26.589 11.904-26.589 26.589c0 14.685 11.904 26.589 26.589 26.589s26.589-11.904 26.589-26.589zM458.822 527.767c0-14.685-11.904-26.589-26.589-26.589s-26.589 11.904-26.589 26.589c0 14.685 11.904 26.589 26.589 26.589s26.589-11.904 26.589-26.589zM458.822 208.698c0-14.685-11.904-26.589-26.589-26.589s-26.589 11.904-26.589 26.589c0 14.685 11.904 26.589 26.589 26.589s26.589-11.904 26.589-26.589z" />
<glyph unicode="&#xe906;" glyph-name="clock" d="M916.429 690.586c-14.367-7.064-24.080-21.595-24.080-38.395 0-6.764 1.574-13.159 4.377-18.841l-0.111 0.25c26.523-53.678 42.040-116.868 42.040-183.682 0-0.674-0.002-1.348-0.005-2.022v0.104c0-235.632-191.018-426.65-426.65-426.65s-426.65 191.018-426.65 426.65c0 235.614 190.988 426.62 426.595 426.65h0.003c0.531 0.002 1.16 0.004 1.788 0.004 99.886 0 191.657-34.742 263.889-92.801l-0.82 0.638c7.529-6.812 17.561-10.981 28.567-10.981 23.555 0 42.65 19.095 42.65 42.65 0 14.367-7.104 27.075-17.99 34.802l-0.132 0.089c-86.464 68.982-197.337 110.689-317.952 110.689-282.77 0-512-229.23-512-512s229.23-512 512-512c282.77 0 512 229.23 512 512 0 0.092 0 0.183 0 0.275v-0.014c0.002 0.463 0.002 1.012 0.002 1.56 0 80.465-18.749 156.551-52.117 224.127l1.325-2.967c-7.058 14.343-21.568 24.038-38.342 24.038-6.685 0-13.010-1.54-18.64-4.284l0.252 0.111zM455.782 690.33c-24.346 0-44.083-19.737-44.083-44.083v-308.582c0-24.346 19.737-44.083 44.083-44.083v0h220.416c24.346 0 44.083 19.737 44.083 44.083s-19.737 44.083-44.083 44.083h-176.333v264.499c0 24.346-19.737 44.083-44.083 44.083v0z" />
<glyph unicode="&#xe907;" glyph-name="close" d="M1024 839.314l-120.686 120.686-391.314-391.314-391.314 391.314-120.686-120.686 391.314-391.314-391.314-391.314 120.686-120.686 391.314 391.314 391.314-391.314 120.686 120.686-391.314 391.314z" />
<glyph unicode="&#xe908;" glyph-name="compaigns" d="M511.971 960c-282.754 0-511.971-229.217-511.971-511.971s229.217-511.971 511.971-511.971c282.754 0 511.971 229.217 511.971 511.971v0c-0.332 282.621-229.351 511.639-511.94 511.971h-0.031zM481.992 708.681c-48.656 2.106-94.637 8.834-138.954 19.785l4.808-1.005c6.882 16.331 14.348 32.020 22.455 46.659 23.944 51.278 62.532 92.364 110.357 118.773l1.334 0.675zM481.992 648.606v-170.599h-187.396c2.741 69.763 14.529 135.748 34.231 198.219l-1.453-5.341c45.652-11.967 98.642-19.938 153.112-22.172l1.506-0.049zM481.992 417.992v-170.657c-55.975-2.284-108.965-10.255-159.888-23.374l5.27 1.152c-18.25 57.131-30.037 123.116-32.733 191.437l-0.045 1.442zM481.992 187.319v-184.888c-49.059 27.054-87.578 68.052-110.847 117.629l-0.669 1.586c-8.049 14.873-15.514 30.562-22.455 46.659 39.509 9.946 85.49 16.675 132.683 18.73l1.463 0.051zM542.008 187.319c48.656-2.106 94.637-8.834 138.954-19.785l-4.808 1.005c-6.882-16.331-14.348-32.020-22.455-46.659-23.938-51.163-62.457-92.161-110.183-118.539l-1.333-0.676zM542.008 247.394v170.599h187.396c-2.741-69.763-14.529-135.748-34.231-198.219l1.453 5.341c-45.647 11.984-98.633 19.975-153.101 22.23l-1.517 0.050zM542.008 478.008v170.657c55.975 2.284 108.965 10.255 159.888 23.374l-5.27-1.152c18.25-57.131 30.037-123.116 32.733-191.437l0.045-1.442zM542.008 708.681v184.888c48.942-27.098 87.359-68.088 110.556-117.626l0.668-1.589c8.049-14.873 15.514-30.562 22.455-46.659-39.509-9.946-85.49-16.675-132.683-18.73l-1.463-0.051zM706.249 802.991c-14.948 27.714-31.035 51.581-49.165 73.71l0.64-0.805c62.061-21.624 115.385-54.112 160.29-95.582l-0.307 0.28c-23.382-12.783-51.024-25.018-79.717-35.013l-3.979-1.206c-9.779 23.817-19.088 43.091-29.349 61.768l1.587-3.152zM317.751 802.991c-8.665-15.447-17.971-34.622-26.268-54.326l-1.494-3.998c-32.674 11.206-60.317 23.442-86.701 37.705l3.006-1.486c44.612 41.081 97.937 73.474 156.81 94.045l3.174 0.965c-17.489-21.324-33.577-45.192-47.334-70.509l-1.192-2.397zM269.633 687.975c-19.865-62.3-32.478-134.193-34.96-208.652l-0.035-1.316h-173.631c6.673 98.835 44.309 187.777 103.179 258.4l-0.586-0.723c30.098-17.491 65.116-33.588 101.704-46.337l4.33-1.313zM234.639 417.992c2.516-75.775 15.129-147.668 36.54-215.659l-1.546 5.691c-40.917-14.063-75.936-30.16-109.018-49.238l2.985 1.587c-58.272 69.885-95.906 158.804-102.517 256.236l-0.075 1.382zM290.047 151.625c9.792-23.702 19.098-42.878 29.348-61.459l-1.586 3.135c14.952-27.714 31.039-51.581 49.167-73.713l-0.641 0.807c-62.062 21.62-115.386 54.109-160.29 95.581l0.306-0.279c23.382 12.783 51.024 25.018 79.717 35.013l3.979 1.206zM706.366 93.301c8.665 15.447 17.971 34.622 26.268 54.326l1.494 3.998c32.674-11.206 60.317-23.442 86.701-37.705l-3.006 1.486c-44.599-41.19-97.922-73.678-156.811-94.333l-3.172-0.969c17.446 21.334 33.497 45.222 47.216 70.556l1.193 2.408zM754.425 208.258c19.865 62.3 32.478 134.193 34.96 208.652l0.035 1.316h173.515c-6.673-98.835-44.309-187.777-103.179-258.4l0.586 0.723c-30.098 17.491-65.116 33.588-101.704 46.337l-4.33 1.313zM789.42 478.241c-2.516 75.775-15.129 147.668-36.54 215.659l1.546-5.691c40.917 14.063 75.936 30.16 109.018 49.238l-2.985-1.587c58.274-69.956 95.877-158.966 102.403-256.486l0.073-1.366z" />
<glyph unicode="&#xe909;" glyph-name="demographics" d="M990.982 481.049c-0.188 264.375-214.549 478.621-478.951 478.621-264.517 0-478.951-214.434-478.951-478.951 0-62.834 12.1-122.842 34.096-177.821l-1.14 3.228v-56.329c0-27.319 22.147-49.466 49.466-49.466v0c5.942 0.057 11.608 1.163 16.846 3.141l-0.337-0.112v-151.674c0-27.319 22.147-49.466 49.466-49.466s49.466 22.147 49.466 49.466v0 65.975c0 9.118 7.391 16.509 16.509 16.509s16.509-7.391 16.509-16.509v0-98.931c0-27.319 22.147-49.466 49.466-49.466s49.466 22.147 49.466 49.466v0 65.913c0 9.118 7.391 16.509 16.509 16.509s16.509-7.391 16.509-16.509v0-98.931c0-27.319 22.147-49.466 49.466-49.466s49.466 22.147 49.466 49.466v65.913c0 9.118 7.391 16.509 16.509 16.509s16.509-7.391 16.509-16.509v0-66.098c0-27.319 22.147-49.466 49.466-49.466s49.466 22.147 49.466 49.466v98.931c0 9.118 7.391 16.509 16.509 16.509s16.509-7.391 16.509-16.509v0-66.037c0-27.319 22.147-49.466 49.466-49.466s49.466 22.147 49.466 49.466v0 98.931c0 9.118 7.391 16.509 16.509 16.509s16.509-7.391 16.509-16.509v0-66.037c0-27.319 22.147-49.466 49.466-49.466s49.466 22.147 49.466 49.466v151.983c4.901-1.867 10.567-2.973 16.485-3.030h0.024c27.319 0 49.466 22.147 49.466 49.466v0 56.267c20.895 51.657 33.019 111.567 33.019 174.308 0 0.238 0 0.476-0.001 0.713v-0.037zM950.853 401.966c-14.893 36.961-50.459 62.573-92.006 62.574h-8.966c12.071 13.393 20.566 30.233 23.842 48.871l0.087 0.594h82.731c0.804-10.944 1.36-21.889 1.36-33.018-0.009-27.936-2.573-55.267-7.472-81.78l0.423 2.758zM181.415 530.577c0.187 36.363 29.708 65.769 66.098 65.769 24.566 0 46.002-13.402 57.396-33.293l0.17-0.323c-15.31-17.203-24.663-40.001-24.663-64.983 0-8.030 0.966-15.835 2.789-23.303l-0.138 0.671c-10.12-6.659-22.529-10.623-35.864-10.623-36.369 0-65.851 29.483-65.851 65.851 0 0.148 0 0.296 0.001 0.443v-0.023zM313.55 497.558c0.054 36.43 29.599 65.942 66.037 65.942 24.626 0 46.103-13.479 57.457-33.462l0.171-0.327c-15.306-17.211-24.657-40.014-24.657-65 0-8.024 0.964-15.823 2.783-23.286l-0.138 0.671c-10.12-6.659-22.529-10.623-35.864-10.623-36.369 0-65.851 29.483-65.851 65.851 0 0.148 0 0.296 0.001 0.443v-0.023zM445.685 464.54c0 36.471 29.566 66.037 66.037 66.037s66.037-29.566 66.037-66.037c0-36.471-29.566-66.037-66.037-66.037v0c-36.336 0.21-65.72 29.68-65.789 66.030v0.007zM586.415 529.773c11.515 20.526 33.138 34.168 57.948 34.168 36.573 0 66.222-29.649 66.222-66.222s-29.649-66.222-66.222-66.222c-13.355 0-25.787 3.953-36.189 10.754l0.253-0.155c1.695 6.818 2.668 14.644 2.668 22.698 0 24.984-9.361 47.782-24.766 65.077l0.086-0.098zM953.017 547.086h-79.083c-8.107 47.169-48.703 82.608-97.575 82.608-0.042 0-0.084 0-0.126 0h0.006c-11.899-0.158-23.225-2.412-33.69-6.409l0.672 0.225v22.692c0 9.118 7.391 16.509 16.509 16.509v0c27.319 0 49.466 22.147 49.466 49.466v0 16.571c0 9.118 7.391 16.509 16.509 16.509v0h45.137c41.488-55.52 70.577-122.665 81.859-195.689l0.316-2.482zM718.488 562.729c11.509 20.551 33.145 34.214 57.973 34.214 36.573 0 66.222-29.649 66.222-66.222s-29.649-66.222-66.222-66.222c-13.366 0-25.806 3.96-36.213 10.77l0.253-0.155c1.681 6.793 2.645 14.592 2.645 22.616 0 24.987-9.351 47.79-24.744 65.1l0.087-0.099zM844.007 778.276h-18.24c-27.319 0-49.466-22.147-49.466-49.466v0-16.509c0-9.118-7.391-16.509-16.509-16.509v0c-27.319 0-49.466-22.147-49.466-49.466v0-42.046c-6.593-5.95-12.315-12.674-17.077-20.075l-0.236-0.392c-14.023 8.142-30.858 12.947-48.815 12.947-34.917 0-65.591-18.169-83.083-45.569l-0.237-0.397c-9.31 5.376-20.157 9.37-31.692 11.356l-0.585 0.083v8.656c0.029 2.896 1.204 5.512 3.093 7.421l-0.001-0.001c1.015 1.070 2.434 1.749 4.011 1.793h0.008c0.332-0.010 0.722-0.015 1.113-0.015 22.777 0 41.242 18.465 41.242 41.242 0 0.027 0 0.054 0 0.081v-0.004c0 4.576 3.71 8.285 8.285 8.285v0h41.304c27.319 0 49.466 22.147 49.466 49.466v0 215.979c65.982-26.852 121.793-66.568 166.584-116.39l0.363-0.41zM644.104 907.010v-227.789c0-9.118-7.391-16.509-16.509-16.509v0h-41.304c-22.811 0-41.304-18.492-41.304-41.304v0c0-4.576-3.71-8.285-8.285-8.285v0 0c-0.017 0-0.038 0-0.059 0-10.846 0-20.697-4.264-27.967-11.206l0.016 0.015c-8.007-7.877-12.986-18.809-13.047-30.905v-8.791c-12.119-2.060-22.967-6.055-32.751-11.691l0.475 0.252c-17.837 27.704-48.457 45.832-83.324 46.003h-0.026c-0.018 0-0.040 0-0.062 0-17.923 0-34.727-4.796-49.196-13.175l0.473 0.253c-7.412 11.541-16.756 21.161-27.673 28.657l-0.337 0.219c1.384 0.299 3 0.498 4.652 0.555l0.047 0.001h121.5c0.147-0.002 0.321-0.002 0.495-0.002 27.32 0 49.468 22.148 49.468 49.468 0 27.147-21.867 49.186-48.947 49.465h-0.026c-0.328-0.023-0.71-0.036-1.095-0.036-8.661 0-15.759 6.695-16.4 15.192l-0.003 0.055v51.259c0 0 0 0 0 0 0 5.361-2.555 10.125-6.514 13.141l-0.040 0.030c-16.116 12.040-26.444 31.059-26.464 52.492v62.639c39.515 12.678 84.972 19.986 132.135 19.986s92.62-7.308 135.299-20.852l-3.164 0.866zM165.895 761.828h73.58c13.66 0 24.733-11.073 24.733-24.733s-11.073-24.733-24.733-24.733h-33.327c-22.811 0-41.304-18.492-41.304-41.304v0c0-0.019 0-0.041 0-0.063 0-4.533-3.64-8.215-8.156-8.284h-51.822c17.148 37.831 37.556 70.442 61.659 99.913l-0.631-0.796zM91.697 629.693h64.985c22.811 0 41.304 18.492 41.304 41.304v0c0.034 4.506 3.661 8.154 8.155 8.224h33.025c31.929 0 57.813 25.884 57.813 57.813s-25.884 57.813-57.813 57.813v0h-43.653c41.971 42.325 92.301 76.286 148.319 99.211l2.984 1.081v-50.764c0-0.037 0-0.081 0-0.125 0-29.138 12.724-55.303 32.918-73.244l0.1-0.087v-43.282c0.69-26.783 22.565-48.231 49.45-48.231 0.158 0 0.315 0.001 0.472 0.002h-0.024c9.038-0.105 16.325-7.456 16.325-16.509 0-9.118-7.392-16.51-16.51-16.51-0.065 0-0.13 0-0.195 0.001h-121.614c-16.899-0.091-32.179-6.947-43.285-17.996l0.003 0.003c-5.027 0.906-10.814 1.423-16.722 1.423-54.638 0-98.931-44.293-98.931-98.931 0-25.481 9.633-48.711 25.456-66.249l-0.078 0.088h-9.089c-0.007 0-0.014 0-0.022 0-41.525 0-77.075-25.584-91.747-61.849l-0.237-0.664c-4.47 23.752-7.035 51.082-7.049 79.009v0.012c0 0.006 0 0.013 0 0.020 0 53.193 9.358 104.2 26.516 151.465l-0.98-3.088zM247.761 167.252c-27.319 0-49.466-22.147-49.466-49.466v0-66.037c0-9.118-7.391-16.509-16.509-16.509s-16.509 7.391-16.509 16.509v313.674h-33.327v-115.626c0-9.118-7.391-16.509-16.509-16.509s-16.509 7.391-16.509 16.509v0 115.626c0.070 36.486 29.664 66.037 66.16 66.037 0 0 0 0 0 0h82.669c17.887 0.074 34.636 4.884 49.076 13.239l-0.476-0.254c3.143-4.879 6.4-9.119 9.971-13.072l-0.077 0.087h-9.027c-54.638 0-98.931-44.293-98.931-98.931v0-115.626c0-27.319 22.147-49.466 49.466-49.466v0c5.942 0.057 11.608 1.163 16.846 3.141l-0.337-0.112v-6.183c-4.924 1.841-10.615 2.906-16.554 2.906-0.006 0-0.012 0-0.018 0h0.001zM379.896 134.233c-27.319 0-49.466-22.147-49.466-49.466v0-66.037c0-9.118-7.391-16.509-16.509-16.509s-16.509 7.391-16.509 16.509v0 313.674h-33.204v-115.626c0-9.118-7.391-16.509-16.509-16.509s-16.509 7.391-16.509 16.509v0 115.626c0.070 36.443 29.594 65.966 66.030 66.037h82.615c17.887 0.074 34.636 4.884 49.076 13.239l-0.476-0.254c3.143-4.879 6.4-9.119 9.971-13.072l-0.077 0.087h-8.904c-54.638 0-98.931-44.293-98.931-98.931v0-115.626c0-27.319 22.147-49.466 49.466-49.466v0c5.942 0.057 11.608 1.163 16.846 3.141l-0.337-0.112v-6.183c-4.935 1.841-10.636 2.906-16.586 2.906-0.016 0-0.033 0-0.049 0h0.003zM594.638-14.163c0-9.118-7.391-16.509-16.509-16.509s-16.509 7.391-16.509 16.509v0 65.789c0 27.319-22.147 49.466-49.466 49.466s-49.466-22.147-49.466-49.466v-66.098c0-9.118-7.391-16.509-16.509-16.509s-16.509 7.391-16.509 16.509v0 313.797h-33.266v-115.626c0-9.118-7.391-16.509-16.509-16.509s-16.509 7.391-16.509 16.509v0 115.626c0.070 36.443 29.594 65.966 66.030 66.037h165.16c36.443-0.070 65.966-29.594 66.037-66.030v-115.633c0-9.118-7.391-16.509-16.509-16.509s-16.509 7.391-16.509 16.509v0 115.626h-33.018v-313.797zM726.774 18.855c0-9.118-7.391-16.509-16.509-16.509s-16.509 7.391-16.509 16.509v0 65.789c0 27.319-22.147 49.466-49.466 49.466v0c-5.942-0.057-11.608-1.163-16.846-3.141l0.337 0.112v6.183c4.901-1.874 10.569-2.981 16.488-3.030h0.021c27.319 0 49.466 22.147 49.466 49.466v0 115.626c0 54.638-44.293 98.931-98.931 98.931v0h-8.904c3.494 3.866 6.752 8.106 9.657 12.596l0.236 0.389c13.947-8.091 30.672-12.899 48.513-12.985h82.633c36.443-0.070 65.966-29.594 66.037-66.030v-115.633c0-9.118-7.391-16.509-16.509-16.509s-16.509 7.391-16.509 16.509v115.811h-33.018v-313.797zM924.945 250.107c0-9.118-7.391-16.509-16.509-16.509s-16.509 7.391-16.509 16.509v115.626h-33.018v-313.797c0-9.118-7.391-16.509-16.509-16.509s-16.509 7.391-16.509 16.509v0 65.727c0 27.319-22.147 49.466-49.466 49.466v0c-5.942-0.057-11.608-1.163-16.846-3.141l0.337 0.112v6.183c4.901-1.874 10.569-2.981 16.488-3.030h0.021c27.319 0 49.466 22.147 49.466 49.466v0 115.688c0 54.638-44.293 98.931-98.931 98.931v0h-8.966c3.501 3.865 6.759 8.106 9.66 12.599l0.233 0.386c13.964-8.101 30.713-12.911 48.578-12.985h82.629c36.443-0.070 65.966-29.594 66.037-66.030v-0.007z" />
<glyph unicode="&#xe90a;" glyph-name="dislike" d="M949.333 960h-106.667c-41.218-0.049-74.618-33.449-74.667-74.662v-15.621c-121.709 57.385-264.367 90.883-414.848 90.883-12.138 0-24.226-0.218-36.259-0.65l1.742 0.050h-68.267c-0.118 0-0.258 0-0.399 0-99.649 0-182.458-72.1-199.105-166.979l-0.176-1.213-47.787-277.333c-1.889-10.391-2.97-22.349-2.97-34.56 0-111.883 90.699-202.581 202.581-202.581 0.024 0 0.048 0 0.072 0h193.532c-15.299-40.609-24.155-87.549-24.155-136.557 0-0.742 0.002-1.483 0.006-2.224v0.114c0-160 90.709-202.667 138.667-202.667 88.576 0 96 82.603 96 160 0 94.464 105.984 172.971 162.133 207.872 2.883-38.731 34.955-69.079 74.142-69.205h106.68c41.108 0.194 74.363 33.539 74.411 74.662v576.005c-0.049 41.218-33.449 74.618-74.662 74.667h-0.005zM542.635 96c0-96-16.299-96-32-96-30.037 0-74.667 36.949-74.667 138.667-0.053 2.123-0.084 4.624-0.084 7.131 0 53.475 13.852 103.714 38.163 147.326l-0.788-1.54c3.366 4.988 5.374 11.134 5.374 17.749 0 17.672-14.326 31.999-31.998 32h-244.053c-76.523 0.018-138.549 62.056-138.549 138.581 0 8.321 0.733 16.471 2.139 24.388l-0.123-0.836 47.787 277.333c11.426 65.8 68.097 115.2 136.307 115.2 0.080 0 0.159 0 0.239 0h68.255c14.119 0.837 30.628 1.315 47.25 1.315 147.273 0 285.796-37.462 406.56-103.376l-4.445 2.221v-418.56c-35.584-18.859-225.365-126.805-225.365-281.6zM960 309.333c0-5.891-4.776-10.667-10.667-10.667v0h-106.667c-5.891 0-10.667 4.776-10.667 10.667v0 576c0.048 5.872 4.795 10.619 10.662 10.667h106.672c5.891 0 10.667-4.776 10.667-10.667v0z" />
<glyph unicode="&#xe90b;" glyph-name="down-arrow" d="M930.796 355.022l-65.654 65.804-306.635-306.635v845.808h-93.091v-845.808l-306.785 306.71-65.427-65.804 418.721-419.098z" />
<glyph unicode="&#xe90c;" glyph-name="expand" d="M950.841 9.159h-877.682v877.682h438.841v73.159h-475.42c-0.017 0-0.037 0-0.057 0-20.171 0-36.523-16.352-36.523-36.523 0-0.020 0-0.040 0-0.060v0.003-950.841c0-0.017 0-0.037 0-0.057 0-20.171 16.352-36.523 36.523-36.523 0.020 0 0.040 0 0.060 0h950.838c0.017 0 0.037 0 0.057 0 20.171 0 36.523 16.352 36.523 36.523 0 0.020 0 0.040 0 0.060v-0.003 475.42h-73.159zM540.046 960v-96.711h318.578l-546.588-546.588 68.267-68.267 546.93 546.588v-318.578h96.711v483.556z" />
<glyph unicode="&#xe90d;" glyph-name="humber-arrow" d="M605.020 866.775l-65.823-65.536 306.627-306.749h-845.824v-93.102h845.824l-306.749-306.627 65.823-65.536 419.103 418.734z" />
<glyph unicode="&#xe90e;" glyph-name="humber-menu" d="M0 738.133h682.667v-68.267h-682.667v68.267zM0 465.067h1024v-68.267h-1024v68.267zM0 226.133h682.667v-68.267h-682.667v68.267z" />
<glyph unicode="&#xe90f;" glyph-name="keyword" d="M972.774 516.214h-68.243c-9.431 0-17.075-7.645-17.075-17.075s7.645-17.075 17.075-17.075h68.243c9.431 0 17.075-7.645 17.075-17.075v0-170.637c0-9.431-7.645-17.075-17.075-17.075h-68.243c-9.431 0-17.075-7.645-17.075-17.075s7.645-17.075 17.075-17.075h68.243c0.017 0 0.038 0 0.059 0 28.259 0 51.168 22.909 51.168 51.168v0 170.637c0 0.035 0 0.076 0 0.117 0 28.259-22.909 51.168-51.168 51.168-0.021 0-0.041 0-0.062 0h0.003zM51.168 243.182h204.788c9.431 0 17.075 7.645 17.075 17.075s-7.645 17.075-17.075 17.075h-204.788c-9.431 0-17.075 7.645-17.075 17.075v0 170.637c0 9.431 7.645 17.075 17.075 17.075v0h204.788c9.431 0 17.075 7.645 17.075 17.075s-7.645 17.075-17.075 17.075h-136.486v17.075c0 9.431-7.645 17.075-17.075 17.075s-17.075-7.645-17.075-17.075v0-17.075h-34.151c-0.017 0-0.038 0-0.059 0-28.259 0-51.168-22.909-51.168-51.168v0-170.637c0-28.259 22.909-51.168 51.168-51.168 0.021 0 0.041 0 0.062 0h-0.003zM580.273 601.474c-122.532 0-221.864-99.332-221.864-221.864s99.332-221.864 221.864-221.864c122.532 0 221.864 99.332 221.864 221.864v0c0 122.532-99.332 221.864-221.864 221.864v0zM580.273 191.897c-103.703 0-187.771 84.068-187.771 187.771s84.068 187.771 187.771 187.771c103.703 0 187.771-84.068 187.771-187.771v0c-0.033-103.678-84.089-187.713-187.771-187.713v0zM85.319 430.895v-102.394c0-9.431 7.645-17.075 17.075-17.075s17.075 7.645 17.075 17.075v0 102.394c0 9.431-7.645 17.075-17.075 17.075s-17.075-7.645-17.075-17.075v0zM865.274 175.995c-3.082 3.046-7.321 4.927-12 4.927s-8.917-1.881-12.001-4.929l-16.487-16.487-27.638 27.638h-0.352c45.711 51.203 73.647 119.127 73.647 193.575 0 160.837-130.384 291.222-291.222 291.222s-291.222-130.384-291.222-291.222c0-160.837 130.384-291.222 291.222-291.222 74.449 0 142.373 27.936 193.861 73.898l-0.286-0.251s0 0 0-0.352l27.638-27.638-19.716-19.716c-3.133-3.097-5.074-7.395-5.074-12.146s1.941-9.049 5.072-12.145l0.002-0.002 140.829-137.777c10.733-10.385 25.377-16.785 41.516-16.785 32.991 0 59.735 26.744 59.735 59.735 0 16.212-6.458 30.915-16.942 41.678l0.013-0.013zM580.273 123.713c-141.393 0-256.015 114.622-256.015 256.015s114.622 256.015 256.015 256.015c141.393 0 256.015-114.622 256.015-256.015v0c-0.1-141.317-114.684-255.839-256.015-255.839v0zM853.48 139.791l99.402-97.289-36.205-36.205-99.402 97.172zM982.573-22.338c-4.637-4.672-11.061-7.564-18.161-7.564s-13.524 2.892-18.159 7.563l-0.002 0.002-4.929 4.812 36.205 36.205 5.105-4.929c4.637-4.631 7.505-11.032 7.505-18.102s-2.868-13.471-7.505-18.102v0zM707.605 446.21c-2.221 1.132-4.843 1.795-7.62 1.795-6.641 0-12.396-3.791-15.22-9.326l-0.045-0.097-50.757-101.514-37.437 99.754c-2.497 6.531-8.712 11.084-15.99 11.084s-13.493-4.554-15.951-10.967l-0.039-0.117-37.437-99.754-50.698 101.514c-2.865 5.65-8.631 9.455-15.286 9.455-9.435 0-17.083-7.649-17.083-17.083 0-2.78 0.664-5.405 1.842-7.725l-0.045 0.097 68.243-136.545c2.795-5.655 8.524-9.476 15.145-9.476 0.349 0 0.695 0.011 1.039 0.032l-0.047-0.002c6.902 0.375 12.683 4.795 15.041 10.915l0.040 0.117 35.207 93.886 35.207-93.886c2.38-6.261 8.166-10.705 15.036-11.088l0.044-0.002h0.88c0.029 0 0.063 0 0.097 0 6.65 0 12.413 3.802 15.232 9.35l0.045 0.097 68.243 136.545c1.139 2.227 1.806 4.857 1.806 7.644 0 6.668-3.822 12.444-9.395 15.255l-0.098 0.045zM34.151 857.547h255.956c18.861 0 34.151 15.29 34.151 34.151v0 34.092c0 18.861-15.29 34.151-34.151 34.151h-255.956c-18.861 0-34.151-15.29-34.151-34.151v0-34.151c0-18.861 15.29-34.151 34.151-34.151v0zM34.151 925.79h255.956v-34.151h-255.956zM477.878 789.304v-34.151c0-18.861 15.29-34.151 34.151-34.151v0h256.015c18.861 0 34.151 15.29 34.151 34.151v0 34.151c0 18.861-15.29 34.151-34.151 34.151v0h-256.015c-18.861 0-34.151-15.29-34.151-34.151v0zM767.985 755.153h-256.015v34.151h256.015zM392.501 857.547h136.545c18.861 0 34.151 15.29 34.151 34.151v0 34.092c0 18.861-15.29 34.151-34.151 34.151v0h-136.545c-18.861 0-34.151-15.29-34.151-34.151v0-34.151c0-18.861 15.29-34.151 34.151-34.151v0zM392.501 925.79h136.545v-34.151h-136.545zM273.090 823.396c-18.861 0-34.151-15.29-34.151-34.151v0-34.151c0-18.861 15.29-34.151 34.151-34.151v0h136.545c18.861 0 34.151 15.29 34.151 34.151v0 34.151c0 18.861-15.29 34.151-34.151 34.151v0zM273.090 755.153v34.151h136.545v-34.151zM34.151 721.002h51.226v-16.958c0-9.431 7.645-17.075 17.075-17.075s17.075 7.645 17.075 17.075v17.075h51.168c18.861 0 34.151 15.29 34.151 34.151v0 34.151c0 18.861-15.29 34.151-34.151 34.151v0h-136.545c0 0 0 0 0 0-18.861 0-34.151-15.29-34.151-34.151 0-0.041 0-0.083 0-0.124v0.006-34.151c0-18.861 15.29-34.151 34.151-34.151v0zM34.151 789.245h136.486v-34.151h-136.486zM631.44 857.547h68.243c18.861 0 34.151 15.29 34.151 34.151v0 34.092c0 0 0 0 0 0 0 18.84-15.256 34.117-34.089 34.151h-68.246c-18.861 0-34.151-15.29-34.151-34.151v0-34.151c0-18.861 15.29-34.151 34.151-34.151v0zM631.44 925.79h68.243v-34.151h-68.243zM989.849 823.396h-119.47c-18.861 0-34.151-15.29-34.151-34.151v0-34.151c0-18.861 15.29-34.151 34.151-34.151v0h119.47c18.861 0 34.151 15.29 34.151 34.151v0 34.151c0 18.861-15.29 34.151-34.151 34.151v0zM870.379 755.153v34.151h119.47v-34.151zM989.79 959.941h-187.771c-18.836-0.033-34.092-15.31-34.092-34.151v0-34.151c0-18.861 15.29-34.151 34.151-34.151v0h187.771c18.861 0 34.151 15.29 34.151 34.151v0 34.151c0 0 0 0 0 0 0 18.861-15.29 34.151-34.151 34.151-0.021 0-0.041 0-0.062 0h0.003zM802.019 891.698v34.092h187.771v-34.151zM102.394 652.876c-9.431 0-17.075-7.645-17.075-17.075v0-34.151c0-9.431 7.645-17.075 17.075-17.075s17.075 7.645 17.075 17.075v0 34.151c0 9.431-7.645 17.075-17.075 17.075v0z" />
<glyph unicode="&#xe910;" d="M629.343 177.061c13.999 44.439 39.164 82.003 72.243 110.679l0.299 0.254c64.078 53.825 104.523 133.99 104.523 223.601 0 0.141 0 0.282 0 0.423v-0.022c0.001 0.323 0.002 0.706 0.002 1.089 0 162.616-131.827 294.443-294.443 294.443s-294.443-131.827-294.443-294.443c0-90.088 40.459-170.727 104.197-224.737l0.428-0.354c34.696-28.321 60.714-66.057 74.242-109.311l0.437-1.622z" />
<glyph unicode="&#xe911;" d="M484.223 172.787h19.195l-85.327 317.876h6.41c11.728 0.090 22.299 4.968 29.868 12.774l0.010 0.011c3.765 3.948 9.066 6.402 14.939 6.402s11.174-2.455 14.932-6.394l0.008-0.008c6.723-7.853 16.646-12.798 27.724-12.798s21.002 4.945 27.683 12.749l0.041 0.049c3.56 3.947 8.693 6.417 14.402 6.417 0.183 0 0.365-0.003 0.546-0.008l-0.027 0.001c5.82-0.274 11.033-2.666 14.929-6.417l-0.007 0.007c7.119-7.874 17.371-12.801 28.774-12.801 0.388 0 0.775 0.006 1.161 0.017l-0.057-0.001h6.41l-83.191-317.876h19.195l87.569 332.763c0 4.273 0 8.547-4.273 10.508-1.096 0.485-2.374 0.768-3.719 0.768-2.669 0-5.077-1.113-6.786-2.901l-0.003-0.004c-3.143-3.654-7.653-6.056-12.728-6.407l-0.058-0.003c-6.517 0.218-12.438 2.602-17.107 6.449l0.049-0.039c-6.723 7.865-16.654 12.819-27.742 12.819s-21.019-4.954-27.7-12.769l-0.042-0.050c-3.765-3.948-9.066-6.402-14.939-6.402s-11.174 2.455-14.932 6.394l-0.008 0.008c-6.357 7.834-15.984 12.799-26.771 12.799-0.341 0-0.682-0.005-1.021-0.015l0.050 0.001c-0.289 0.009-0.63 0.014-0.971 0.014-10.787 0-20.414-4.965-26.721-12.735l-0.050-0.064c-4.305-3.978-10.083-6.418-16.43-6.418-0.221 0-0.441 0.003-0.661 0.009l0.032-0.001c-0.113-0.003-0.246-0.005-0.38-0.005-5.102 0-9.616 2.513-12.374 6.369l-0.031 0.046c-1.713 1.791-4.121 2.905-6.79 2.905-1.344 0-2.623-0.283-3.779-0.792l0.060 0.024c-2.941-1.154-4.985-3.967-4.985-7.258 0-1.179 0.262-2.297 0.732-3.298l-0.020 0.048z" />
<glyph unicode="&#xe912;" d="M445.868-19.2c10.781-26.476 36.317-44.8 66.132-44.8s55.351 18.324 65.961 44.324l0.172 0.476z" />
<glyph unicode="&#xe913;" d="M590.917-21.336h-155.593c-0.084-0.001-0.182-0.001-0.281-0.001-21.125 0-38.25 17.125-38.25 38.25 0 0.099 0 0.198 0.001 0.296v-0.015 162.003h232.549v-162.143c0-0.042 0-0.091 0-0.141 0-21.125-17.125-38.25-38.25-38.25-0.062 0-0.123 0-0.185 0h0.009z" />
<glyph unicode="&#xe914;" d="M627.206 98.143h-230.412c-12.914 0.118-23.351 10.555-23.468 23.457v0.011c0.118 12.914 10.555 23.351 23.457 23.468h230.423c12.914-0.118 23.351-10.555 23.468-23.457v-0.011c-0.118-12.914-10.555-23.351-23.457-23.468h-0.011z" />
<glyph unicode="&#xe915;" d="M627.206 23.464h-230.412c-12.914 0.118-23.351 10.555-23.468 23.457v0.011c0.118 12.914 10.555 23.351 23.457 23.468h230.423c12.914-0.118 23.351-10.555 23.468-23.457v-0.011c-0.118-12.914-10.555-23.351-23.457-23.468h-0.011z" />
<glyph unicode="&#xe916;" d="M512 960c-11.773-0.020-21.312-9.559-21.332-21.33v-72.544c0.020-11.773 9.559-21.312 21.33-21.332h0.002c0.367-0.024 0.796-0.037 1.228-0.037 11.124 0 20.141 9.017 20.141 20.141 0 0.432-0.014 0.861-0.040 1.287l0.003-0.058v72.542c-0.020 11.773-9.559 21.312-21.33 21.332h-0.002z" />
<glyph unicode="&#xe917;" d="M226.104 829.872c-3.823 3.823-9.105 6.188-14.939 6.188-11.668 0-21.127-9.459-21.127-21.127 0-5.834 2.365-11.116 6.188-14.939l51.211-51.211c3.823-3.823 9.105-6.188 14.939-6.188 11.668 0 21.127 9.459 21.127 21.127 0 5.834-2.365 11.116-6.188 14.939v0z" />
<glyph unicode="&#xe918;" d="M160.007 535.464h-72.542c-11.773-0.020-21.312-9.559-21.332-21.33v-0.002c0.020-11.773 9.559-21.312 21.33-21.332h72.544c11.773 0.020 21.312 9.559 21.332 21.33v0.002c-0.803 11.444-9.888 20.529-21.259 21.328l-0.073 0.004z" />
<glyph unicode="&#xe919;" d="M247.471 279.447l-51.211-51.211c-3.823-3.823-6.188-9.105-6.188-14.939 0-11.668 9.459-21.127 21.127-21.127 5.834 0 11.116 2.365 14.939 6.188v0l51.211 51.316c3.823 3.823 6.188 9.105 6.188 14.939 0 11.668-9.459 21.127-21.127 21.127-5.834 0-11.116-2.365-14.939-6.188v0z" />
<glyph unicode="&#xe91a;" d="M776.529 279.447c-3.823 3.823-9.105 6.188-14.939 6.188-11.668 0-21.127-9.459-21.127-21.127 0-5.834 2.365-11.116 6.188-14.939v0l51.211-51.211c3.823-3.823 9.105-6.188 14.939-6.188 11.668 0 21.127 9.459 21.127 21.127 0 5.834-2.365 11.116-6.188 14.939v0z" />
<glyph unicode="&#xe91b;" d="M936.536 535.464h-72.542c-11.773-0.020-21.312-9.559-21.332-21.33v-0.002c0.020-11.773 9.559-21.312 21.33-21.332h72.544c11.773 0.020 21.312 9.559 21.332 21.33v0.002c-0.020 11.773-9.559 21.312-21.33 21.332h-0.002z" />
<glyph unicode="&#xe91c;" d="M797.861 829.872l-51.211-51.211c-3.823-3.823-6.188-9.105-6.188-14.939 0-11.668 9.459-21.127 21.127-21.127 5.834 0 11.116 2.365 14.939 6.188v0l51.211 51.316c3.823 3.823 6.188 9.105 6.188 14.939 0 11.668-9.459 21.127-21.127 21.127-5.834 0-11.116-2.365-14.939-6.188v0z" />
<glyph unicode="&#xe91d;" glyph-name="landing-pages" d="M941.514 729.063h-16.521v230.937h-825.927v-230.937h-16.462c-45.657-0.168-82.605-37.219-82.605-82.9 0 0 0 0 0 0v0-528.491c0.168-45.554 37.051-82.437 82.589-82.604h214.669v-66.084h-66.32v-33.042h561.533v33.042h-65.788v66.143h214.831c45.554 0.168 82.437 37.051 82.604 82.589v528.448c0 0 0 0 0 0.001 0 45.681-36.947 82.732-82.588 82.9h-0.016zM132.108 794.85h759.725v-528.491h-759.725zM891.833 926.958v-99.066h-759.725v99.066zM82.605 695.725h16.521v-462.467h825.749v462.467h16.639c27.359-0.034 49.529-22.203 49.563-49.559v-445.89h-958.035v445.887c0.034 27.359 22.203 49.529 49.559 49.563h0.003zM693.7-30.958h-363.401v66.084h363.341zM941.514 68.167h-858.909c-27.359 0.034-49.529 22.203-49.563 49.559v49.566h957.916v-49.563c-0.033-27.318-22.136-49.462-49.435-49.563h-0.010zM99.066 134.192h33.042v-33.042h-33.042zM165.15 134.192h33.042v-33.042h-33.042zM231.233 134.192h33.042v-33.042h-33.042zM165.15 893.916h33.042v-33.042h-33.042zM231.233 893.916h33.042v-33.042h-33.042zM297.258 893.916h33.042v-33.042h-33.042zM435.583 560.182l-55.721 15.929v4.382c20.027 15.189 32.874 38.941 33.042 65.701v29.634c0.006 0.377 0.009 0.821 0.009 1.266 0 43.511-32.703 79.383-74.87 84.379l-0.401 0.039c-2.182 0.205-4.719 0.322-7.283 0.322-45.609 0-82.585-36.964-82.605-82.569v-33.044c0.168-26.787 13.015-50.539 32.836-65.579l0.206-0.15v-4.382l-55.721-15.929c-34.815-10.277-59.81-41.907-59.925-79.394v-49.28h330.3v49.267c-0.107 37.485-25.076 69.109-59.28 79.258l-0.587 0.149zM462.467 464.551h-264.275v16.225c0.194 22.386 15.146 41.228 35.591 47.282l0.352 0.089 79.703 22.738v47.372l-8.231 4.796c-14.925 8.595-24.811 24.458-24.811 42.631 0 0.001 0 0.003 0 0.004v0 33.042c0.025 14.445 6.211 27.441 16.071 36.503l0.036 0.032c8.696 8.069 20.384 13.019 33.228 13.019 1.665 0 3.311-0.083 4.933-0.246l-0.205 0.017c25.568-3.418 45.082-25.091 45.082-51.322 0-0.506-0.007-1.010-0.022-1.512l0.002 0.074v-29.607c0-0.001 0-0.003 0-0.004 0-18.172-9.886-34.035-24.574-42.504l-0.237-0.126-8.231-4.796v-47.372l79.703-22.738c20.786-6.161 35.729-24.993 35.943-47.347v-0.025zM165.15 398.467h330.3v-33.042h-330.3zM165.15 332.383h330.3v-33.042h-330.3zM528.491 299.341h330.3v264.275h-330.3zM561.533 530.279h264.275v-197.599h-264.275zM528.491 761.808h330.3v-33.042h-330.3zM528.491 695.725h330.3v-33.042h-330.3zM528.491 629.7h230.937v-33.042h-230.937z" />
<glyph unicode="&#xe91e;" glyph-name="left-nevigation" d="M418.987 29.412l65.82 65.422-306.631 306.631h845.824v93.127h-845.824l306.745 306.688-65.82 65.479-419.1-418.702z" />
<glyph unicode="&#xe91f;" glyph-name="measurment" d="M452.68 960h-319.981c-17.689 0-32.028-14.34-32.028-32.028v0-959.944c0-17.689 14.34-32.028 32.028-32.028v0h319.981c17.689 0 32.028 14.34 32.028 32.028v959.944c0 17.689-14.34 32.028-32.028 32.028v0zM420.652 0.056h-255.624v96.31h159.991v63.981h-160.367v95.709h96.009v63.981h-96.009v96.009h159.991v63.756h-159.991v96.235h96.009v63.981h-96.009v96.009h159.991v63.981h-159.991v96.009h255.624zM878.219 150.423l-105.257-105.257v805.667l105.257-105.257 45.11 45.11-160.367 159.991c-5.787 5.741-13.757 9.289-22.555 9.289s-16.768-3.548-22.557-9.291l-159.989-159.989 45.11-45.11 105.257 105.257v-805.667l-105.257 105.257-45.11-45.11 159.991-159.991c5.787-5.741 13.757-9.289 22.555-9.289s16.768 3.548 22.557 9.291l159.989 159.989z" />
<glyph unicode="&#xe920;" glyph-name="notification" d="M512.017-63.899c-88.333 0.096-159.916 71.678-160.012 160.002v0.009c0.806 17.039 14.817 30.548 31.982 30.548s31.176-13.509 31.979-30.476l0.003-0.072c-0.043-1.072-0.067-2.331-0.067-3.595 0-53.027 42.987-96.014 96.014-96.014s96.014 42.987 96.014 96.014c0 1.264-0.024 2.523-0.073 3.775l0.006-0.18c0.806 17.039 14.817 30.548 31.982 30.548s31.176-13.509 31.979-30.476l0.003-0.072c-0.096-88.263-71.563-159.801-159.789-160.012h-0.020zM863.988 63.996h-703.977c-41.184 0.073-74.541 33.476-74.541 74.67 0 22.598 10.039 42.852 25.9 56.544l0.096 0.081c62.488 52.795 101.902 131.207 101.905 218.825v0 119.209c1.792 163.587 134.821 295.508 298.662 295.508s296.87-131.922 298.661-295.339l0.001-0.17v-118.973c0-0.111 0-0.243 0-0.374 0-87.416 39.234-165.669 101.054-218.109l0.413-0.342c16.269-13.781 26.528-34.224 26.528-57.063 0-41.22-33.416-74.636-74.636-74.636-0.012 0-0.023 0-0.035 0h0.002zM512.017 768.040c-129.531-0.153-234.494-105.117-234.648-234.633v-118.988c0-0.079 0-0.173 0-0.266 0-106.945-48.009-202.677-123.651-266.82l-0.507-0.419c-2.392-1.96-3.907-4.914-3.907-8.222 0-0.068 0.001-0.137 0.002-0.205v0.010c0.057-5.871 4.801-10.615 10.667-10.672h704.016c5.871 0.057 10.615 4.801 10.672 10.667v0.005c0 0.011 0 0.023 0 0.036 0 3.236-1.459 6.131-3.755 8.064l-0.016 0.013c-76.189 64.581-124.225 160.352-124.225 267.342 0 0.093 0 0.185 0 0.278v-0.014 119.108c-0.115 129.56-105.093 234.562-234.633 234.715h-0.015zM512.017 768.107c-17.682 0-32.016 14.334-32.016 32.016v0 127.861c-0.021 0.438-0.034 0.952-0.034 1.468 0 17.682 14.334 32.016 32.016 32.016s32.016-14.334 32.016-32.016c0-0.516-0.012-1.030-0.036-1.54l0.003 0.072v-127.928c-0.038-17.629-14.319-31.91-31.945-31.948h-0.004z" />
<glyph unicode="&#xe921;" glyph-name="overview" d="M1011.999 569.035l-115.969 92.751v202.207c0 0.018 0 0.039 0 0.060 0 17.652-14.31 31.962-31.962 31.962-0.021 0-0.042 0-0.064 0h-127.907c0 0 0 0 0 0-17.664 0-31.988-14.303-32.023-31.959v-48.791l-172.054 137.739c-5.434 4.345-12.406 6.973-19.992 6.973s-14.558-2.628-20.056-7.023l0.064 0.050-480.038-383.97c-7.325-5.918-11.97-14.9-11.97-24.967 0-17.675 14.319-32.005 31.99-32.023h96.009v-544.023c0-0.018 0-0.039 0-0.060 0-17.652 14.31-31.962 31.962-31.962 0.021 0 0.042 0 0.064 0h703.952c0.018 0 0.039 0 0.060 0 17.652 0 31.962 14.31 31.962 31.962 0 0.021 0 0.042 0 0.064v-0.003 543.962h96.008c17.672 0.018 31.992 14.348 31.992 32.023 0 10.067-4.645 19.049-11.909 24.919l-0.061 0.047zM768 768.045v63.985h64.166v-119.286l-68.689 54.999h4.704zM448.015-0.015v256h128.030v-256zM864.128 575.97c0 0 0 0 0 0-17.652 0-31.962-14.31-31.962-31.962 0-0.042 0-0.085 0-0.127v0.007-544.023h-192.136v288.143c0 0.018 0 0.039 0 0.060 0 17.652-14.31 31.962-31.962 31.962-0.021 0-0.042 0-0.064 0h-191.952c-0.018 0-0.039 0-0.060 0-17.652 0-31.962-14.31-31.962-31.962 0-0.021 0-0.042 0-0.064v0.003-288.023h-192.015v543.902c0 0.018 0 0.039 0 0.060 0 17.652-14.31 31.962-31.962 31.962-0.021 0-0.042 0-0.064 0h-36.784l388.794 311.12 388.794-311.060z" />
<glyph unicode="&#xe922;" glyph-name="placements" d="M913.657 960h-803.314c-60.911-0.073-110.27-49.432-110.343-110.336v-674.801c0.073-60.911 49.432-110.27 110.336-110.343h307.226v-68.548h-162.634c-15.971-0.761-28.632-13.895-28.632-29.986s12.661-29.225 28.564-29.983l0.068-0.003h514.144c15.971 0.761 28.632 13.895 28.632 29.986s-12.661 29.225-28.564 29.983l-0.068 0.003h-162.826v68.548h307.219c0.038 0 0.083 0 0.128 0 60.966 0 110.398 49.387 110.471 110.336v674.801c-0.073 60.934-49.468 110.307-110.404 110.343h-0.003zM546.274-4.028h-68.548v68.548h68.548zM964.028 174.863c-0.036-27.769-22.538-50.271-50.304-50.307h-803.381c-27.769 0.036-50.271 22.538-50.307 50.304v674.797c0 27.797 22.515 50.335 50.304 50.371h803.317c27.769-0.036 50.271-22.538 50.307-50.304v-0.003zM222.798 831.48c-0.009 0-0.020 0-0.030 0-52.033 0-94.214-42.181-94.214-94.214 0-24.894 9.655-47.533 25.424-64.377l-0.049 0.053c-15.758-16.672-25.483-39.191-25.602-63.98v-64.028c0-16.578 13.439-30.018 30.018-30.018v0h128.52c16.578 0 30.018 13.439 30.018 30.018v0 64.004c-0.119 24.813-9.844 47.332-25.643 64.048l0.042-0.044c15.721 16.791 25.376 39.43 25.376 64.324 0 52.033-42.181 94.214-94.214 94.214-0.011 0-0.021 0-0.032 0h0.002zM222.798 771.508c18.911 0 34.242-15.331 34.242-34.242s-15.331-34.242-34.242-34.242c-18.911 0-34.242 15.331-34.242 34.242v0c0.036 18.897 15.345 34.206 34.239 34.242h0.003zM257.040 574.44h-68.804v34.242c0 18.929 15.345 34.274 34.274 34.274s34.274-15.345 34.274-34.274v0-34.242zM415.642 707.248h192.78c0.414-0.020 0.898-0.032 1.386-0.032 16.578 0 30.018 13.439 30.018 30.018s-13.439 30.018-30.018 30.018c-0.487 0-0.972-0.012-1.454-0.035l0.068 0.003h-192.78c-15.971-0.761-28.632-13.895-28.632-29.986s12.661-29.225 28.564-29.983l0.068-0.003zM672.682 638.636h-257.040c-15.971-0.761-28.632-13.895-28.632-29.986s12.661-29.225 28.564-29.983l0.068-0.003h257.040c0.414-0.020 0.898-0.032 1.386-0.032 16.578 0 30.018 13.439 30.018 30.018s-13.439 30.018-30.018 30.018c-0.487 0-0.972-0.012-1.454-0.035l0.068 0.003zM801.202 510.116c-24.751-50.204-56.494-123.661-85.816-198.334l-8.462-24.464v-64.004c0-16.578 13.439-30.018 30.018-30.018h128.52c16.578 0 30.018 13.439 30.018 30.018v0 64.004c-15.727 16.765-25.387 39.384-25.387 64.26s9.66 47.495 25.434 64.311l-0.047-0.051c-0.036 52.054-42.224 94.242-94.274 94.278h-0.003zM801.202 450.144c18.911 0 34.242-15.331 34.242-34.242s-15.331-34.242-34.242-34.242c-18.911 0-34.242 15.331-34.242 34.242v0c0.036 18.897 15.345 34.206 34.239 34.242h0.003zM835.444 253.076h-68.74v34.242c0 18.929 15.345 34.274 34.274 34.274s34.274-15.345 34.274-34.274v0zM608.422 445.856h-192.78c-0.414 0.020-0.898 0.032-1.386 0.032-16.578 0-30.018-13.439-30.018-30.018s13.439-30.018 30.018-30.018c0.487 0 0.972 0.012 1.454 0.035l-0.068-0.003h192.78c0.414-0.020 0.898-0.032 1.386-0.032 16.578 0 30.018 13.439 30.018 30.018s-13.439 30.018-30.018 30.018c-0.487 0-0.972-0.012-1.454-0.035l0.068 0.003zM608.422 317.336h-257.040c-0.414 0.020-0.898 0.032-1.386 0.032-16.578 0-30.018-13.439-30.018-30.018s13.439-30.018 30.018-30.018c0.487 0 0.972 0.012 1.454 0.035l-0.068-0.003h257.040c15.971 0.761 28.632 13.895 28.632 29.986s-12.661 29.225-28.564 29.983l-0.068 0.003z" />
<glyph unicode="&#xe923;" glyph-name="planning" d="M937.509 456.435h0.968c0.008 0 0.018 0 0.027 0 9.091 0 16.523 7.104 17.047 16.063l0.002 0.046c0 3.18 0 6.43 0 9.61 0 0.119 0 0.259 0 0.399 0 87.397-23.618 169.277-64.82 239.606l1.213-2.24c0 0.346 0 0.761-0.346 1.106s-0.553 0.553-0.761 0.899c-42.609 71.971-101.115 130.366-170.95 171.62l-2.24 1.224s-0.484 0.968-0.83 1.175-0.761 0-1.106 0.346c-68.188 39.983-150.167 63.596-237.661 63.596s-169.473-23.612-239.912-64.812l2.251 1.216c-0.415 0-0.899 0-1.314-0.415s-0.691-0.691-1.106-0.968c-18.94-10.886-34.947-21.512-50.243-33.032l1.224 0.883c-4.135-3.164-6.776-8.101-6.776-13.655 0-9.47 7.677-17.146 17.146-17.146 3.916 0 7.525 1.313 10.412 3.522l-0.041-0.030c10.371 7.882 20.741 15.21 31.873 22.055l16.87-29.245c3.094-4.693 8.342-7.748 14.304-7.748 9.431 0 17.077 7.646 17.077 17.077 0 2.827-0.687 5.494-1.904 7.843l0.045-0.095-16.939 29.384c55.060 29.666 120.121 48.063 189.248 50.45l0.742 0.020v-33.463c0-9.431 7.646-17.077 17.077-17.077s17.077 7.646 17.077 17.077v33.947c69.843-2.669 134.795-21.19 192.13-52.040l-2.347 1.154-16.8-29.176c-1.738-2.631-2.773-5.859-2.773-9.329 0-9.431 7.646-17.077 17.077-17.077 6.604 0 12.332 3.749 15.173 9.234l0.045 0.095 16.8 29.038c56.307-36.155 102.714-82.784 137.544-137.502l1.077-1.811-29.038-16.8c-5.581-2.886-9.329-8.614-9.329-15.218 0-9.431 7.646-17.077 17.077-17.077 3.47 0 6.698 1.035 9.393 2.813l-0.064-0.040 29.107 16.8c32.311-59.788 51.3-130.872 51.3-206.39 0-0.117 0-0.233 0-0.35v0.018c0-2.558 0-5.116 0-7.743-0.019-0.298-0.029-0.647-0.029-0.998 0-9.077 7.082-16.5 16.021-17.045l0.048-0.002zM750.975 482.154c-150.728-0.079-272.887-122.286-272.887-273.025 0-150.788 122.238-273.025 273.025-273.025s273.025 122.238 273.025 273.025v0c0 150.788-122.238 273.025-273.025 273.025-0.049 0-0.097 0-0.146 0h0.007zM750.975-29.466c-0.082 0-0.179 0-0.276 0-131.925 0-238.871 106.946-238.871 238.871s106.946 238.871 238.871 238.871c131.925 0 238.871-106.946 238.871-238.871 0-0.097 0-0.194 0-0.292v0.015c-0.157-131.709-106.886-238.437-238.579-238.595h-0.015zM514.316 808.277c-9.109 9.387-21.843 15.213-35.938 15.213-0.175 0-0.35-0.001-0.524-0.003h0.027c-28.256 0-51.162-22.906-51.162-51.162v0-245.439c-9.427-10.725-15.53-24.578-16.581-39.82l-0.012-0.211-114.907-114.907c-9.91-9.363-16.078-22.595-16.078-37.268 0-28.294 22.937-51.231 51.231-51.231 14.656 0 27.874 6.154 37.212 16.019l0.022 0.024 114.907 114.907c35.577 2.223 63.589 31.621 63.589 67.562 0 17.273-6.47 33.034-17.118 44.993l0.059-0.068v245.439c0.002 0.162 0.003 0.354 0.003 0.546 0 13.838-5.631 26.362-14.727 35.403l-0.002 0.002zM478.019 789.402c0.007 0 0.015 0 0.024 0 4.784 0 9.098-2.016 12.137-5.246l0.008-0.009c3.031-2.965 4.91-7.096 4.91-11.667 0-0.055 0-0.11-0.001-0.164v0.008-224.283c-5.115 1.54-10.992 2.426-17.077 2.426s-11.962-0.886-17.511-2.536l0.434 0.111v224.283c0.039 9.353 7.591 16.93 16.931 17.008h0.007zM343.477 323.621c-3.131-3.399-7.605-5.522-12.574-5.522-9.431 0-17.077 7.646-17.077 17.077 0 4.969 2.122 9.442 5.51 12.563l0.012 0.011 99.973 99.973c5.973-10.014 14.115-18.156 23.818-23.957l0.311-0.172zM477.88 448.069c-18.863 0-34.154 15.291-34.154 34.154s15.291 34.154 34.154 34.154c18.863 0 34.154-15.291 34.154-34.154v0c0-18.863-15.291-34.154-34.154-34.154v0zM65.128 241.9c42.518-71.938 100.907-130.326 170.615-171.622l2.229-1.222s0.553-0.553 0.899-0.761l1.728-0.691c68.003-39.86 149.756-63.399 237.006-63.399 0.072 0 0.144 0 0.217 0h-0.011c3.249 0 6.43 0 9.679 0 8.986 0.55 16.065 7.972 16.065 17.047 0 0.327-0.009 0.651-0.027 0.973l0.002-0.045c-0.769 9.019-8.28 16.048-17.432 16.048-0.191 0-0.382-0.003-0.571-0.009l0.028 0.001c-2.627 0-5.116 0-7.743 0-75.662 0.034-146.858 19.124-209.058 52.731l2.336-1.154 16.8 29.176c1.172 2.253 1.859 4.92 1.859 7.748 0 9.431-7.646 17.077-17.077 17.077-5.961 0-11.209-3.055-14.264-7.684l-0.040-0.064-16.8-29.038c-56.38 36.001-102.872 82.471-137.827 137.041l-1.071 1.787 29.176 16.8c5.581 2.886 9.329 8.614 9.329 15.218 0 9.431-7.646 17.077-17.077 17.077-3.47 0-6.698-1.035-9.393-2.813l0.064 0.040-29.107-16.8c-29.673 54.993-48.171 119.948-50.792 188.969l-0.025 0.814h33.67c9.431 0 17.077 7.646 17.077 17.077s-7.646 17.077-17.077 17.077h-33.463c2.406 69.84 20.778 134.876 51.551 192.268l-1.149-2.347 29.384-16.939c2.631-1.738 5.859-2.773 9.329-2.773 9.431 0 17.077 7.646 17.077 17.077 0 6.604-3.749 12.332-9.234 15.173l-0.095 0.045-29.245 16.87c6.914 10.855 14.173 21.502 22.055 31.873 2.446 2.934 3.931 6.744 3.931 10.9 0 9.431-7.646 17.077-17.077 17.077-5.744 0-10.825-2.836-13.921-7.183l-0.035-0.052c-10.738-14.080-21.451-30.062-31.196-46.681l-1.23-2.269c0-0.415-0.761-0.691-0.968-1.106s0-0.899-0.484-1.314c-39.977-68.19-63.585-150.168-63.585-237.661s23.608-169.471 64.802-239.913l-1.217 2.252c0-0.346 0-0.761 0.346-1.106l1.244-1.383zM819.214 286.218c0-9.431 7.646-17.077 17.077-17.077s17.077 7.646 17.077 17.077v0c-1.879 47.868-38.246 86.69-84.849 92.391l-0.467 0.047v1.383c0 9.431-7.646 17.077-17.077 17.077s-17.077-7.646-17.077-17.077v-1.383c-48.031-3.83-85.558-43.751-85.558-92.437s37.527-88.607 85.233-92.416l0.325-0.021v-118.779c-28.189 5.020-49.559 28.589-51.155 57.432l-0.007 0.16c0 9.431-7.646 17.077-17.077 17.077s-17.077-7.646-17.077-17.077v0c1.879-47.868 38.246-86.69 84.849-92.391l0.467-0.047v-1.383c0-9.431 7.646-17.077 17.077-17.077s17.077 7.646 17.077 17.077v1.383c48.031 3.83 85.558 43.751 85.558 92.437s-37.527 88.607-85.233 92.416l-0.325 0.021v118.502c28.103-4.997 49.431-28.428 51.154-57.144l0.008-0.171zM682.736 286.218c1.602 29.003 22.973 52.572 50.788 57.536l0.374 0.055v-115.184c-28.189 5.020-49.559 28.589-51.155 57.432l-0.007 0.16zM819.214 132.662c-1.602-29.003-22.973-52.572-50.788-57.536l-0.374-0.055v114.907c28.21-5.025 49.592-28.629 51.155-57.504l0.007-0.157z" />
<glyph unicode="&#xe924;" glyph-name="polygon-down" d="M512 128l-512 640h1024z" />
<glyph unicode="&#xe925;" glyph-name="polygon-left" d="M803.714 875.435v-854.894l-556.675 427.447 556.675 427.447zM315.465 447.988l446.575-342.906v685.812l-446.575-342.906zM178.612 447.988l666.775 511.988v-1023.977l-666.775 511.988z" />
<glyph unicode="&#xe926;" glyph-name="product-groups" d="M514.008 697.868l-187.996 108.609c-2.871 1.686-6.323 2.682-10.008 2.682s-7.137-0.996-10.103-2.733l0.094 0.051-187.996-108.547c-6.015-3.519-9.994-9.943-10.008-17.296v-217.096c0.014-7.356 3.993-13.779 9.914-17.247l0.094-0.051 187.687-108.609c2.871-1.686 6.323-2.682 10.008-2.682s7.137 0.996 10.103 2.733l-0.094-0.051 187.996 108.547c6.015 3.519 9.994 9.943 10.008 17.296v217.096c0 0.043 0.001 0.094 0.001 0.145 0 7.244-3.848 13.589-9.612 17.103l-0.088 0.050zM295.987 389.587l-128.008 74.136 40.528 23.415c5.809 3.573 9.623 9.894 9.623 17.107 0 11.055-8.962 20.017-20.017 20.017-3.53 0-6.846-0.914-9.725-2.517l0.102 0.052-40.528-23.415v147.468l128.008-74.136-24.712-14.086c-6.241-3.471-10.393-10.026-10.393-17.551 0-11.055 8.962-20.017 20.017-20.017 3.842 0 7.432 1.083 10.48 2.959l-0.087-0.050 24.712 14.086zM316.004 654.375c-11.055 0-20.017-8.962-20.017-20.017v0-27.739l-128.008 74.136 128.008 74.136v-41.084c-0.020-0.332-0.031-0.721-0.031-1.112 0-11.055 8.962-20.017 20.017-20.017s20.017 8.962 20.017 20.017c0 0.391-0.011 0.779-0.033 1.165l0.002-0.053v40.404l128.008-74.136-128.008-74.136v27.739c0.007 0.203 0.012 0.441 0.012 0.68 0 11.037-8.933 19.988-19.964 20.017h-0.003zM483.983 498.134l-29.901 17.298c-2.962 1.827-6.551 2.91-10.393 2.91-11.055 0-20.017-8.962-20.017-20.017 0-7.525 4.153-14.081 10.291-17.499l0.102-0.052 29.901-17.298-128.008-74.136v148.024l33.67-19.461c2.777-1.552 6.094-2.465 9.623-2.465 11.055 0 20.017 8.962 20.017 20.017 0 7.213-3.815 13.534-9.537 17.057l-0.087 0.050-33.67 19.461 128.008 74.136zM1013.992 399.41l-235.999 136.224v22.364c0 3.856 3.126 6.981 6.981 6.981v0h42.010c25.951 0.035 46.979 21.063 47.014 47.011v21.749l39.663 28.542c5.074 3.675 8.337 9.58 8.34 16.248v47.448h27.986c11.055 0 20.017 8.962 20.017 20.017v0 94.029h33.979c0.332-0.020 0.721-0.031 1.112-0.031 11.055 0 20.017 8.962 20.017 20.017s-8.962 20.017-20.017 20.017c-0.391 0-0.779-0.011-1.165-0.033l0.053 0.002h-34.041v59.988c0 0 0 0 0 0 0 11.033-8.927 19.981-19.951 20.017h-192.015c-11.055 0-20.017-8.962-20.017-20.017v0-59.988h-105.952v59.988c0 11.055-8.962 20.017-20.017 20.017v0h-591.974c-11.055 0-20.017-8.962-20.017-20.017v0-735.983c0-11.055 8.962-20.017 20.017-20.017v0h471.998v-85.997c0.014-7.356 3.993-13.779 9.914-17.247l0.094-0.051 246.007-142.094c2.871-1.686 6.323-2.682 10.008-2.682s7.137 0.996 10.103 2.733l-0.094-0.051 246.007 142.094c6.015 3.519 9.994 9.943 10.008 17.296v284.189c-0.051 7.343-4.048 13.742-9.974 17.185l-0.096 0.051zM881.968 688.787l-27.986-20.14-27.986 20.14v37.068h55.972zM777.993 920.028h151.978v-154.017h-151.978zM494.671 392.923c-1.674-2.852-2.663-6.282-2.663-9.942 0-0.175 0.002-0.35 0.007-0.524l-0.001 0.026s0 0 0-0.371v-158.094h-452.043v696.011h552.002v-39.972h-203.997c-10.566-0.606-18.905-9.322-18.905-19.986s8.339-19.38 18.852-19.983l0.053-0.002h203.873v-315.077c-0.020-0.332-0.031-0.721-0.031-1.112 0-11.055 8.962-20.017 20.017-20.017s20.017 8.962 20.017 20.017c0 0.391-0.011 0.779-0.033 1.165l0.002-0.053v315.077h106.014v-94.091c0-11.055 8.962-20.017 20.017-20.017h27.986v-47.447c0.003-6.668 3.267-12.573 8.282-16.208l0.058-0.040 39.663-28.542v-21.746c0-3.856-3.126-6.981-6.981-6.981v0h-42.010c-25.951-0.035-46.979-21.063-47.014-47.011v-22.367l-230.748-133.321c-5.344-1.369-9.726-4.763-12.367-9.296l-0.051-0.095zM738.021-9.387l-206.036 118.988v238.779l205.974-118.432zM984.028 109.539l-206.036-118.864v239.273l40.651 23.353c5.601 3.611 9.257 9.818 9.257 16.879 0 11.055-8.962 20.017-20.017 20.017-3.359 0-6.525-0.827-9.305-2.29l0.11 0.053-40.713-23.415-205.171 117.999 205.171 118.432 205.171-118.432-29.963-17.237c-6.478-3.402-10.822-10.084-10.822-17.78 0-11.055 8.962-20.017 20.017-20.017 3.994 0 7.715 1.17 10.839 3.185l-0.079-0.048 30.89 17.731zM887.776 322.124c-3.622 3.619-8.623 5.856-14.148 5.856-11.055 0-20.017-8.962-20.017-20.017s8.962-20.017 20.017-20.017c11.055 0 20.017 8.962 20.017 20.017 0 0.004 0 0.009 0 0.013v-0.001c-0.018 5.524-2.257 10.521-5.87 14.148l0.001-0.001zM329.966 874.126c-3.609 3.597-8.588 5.82-14.086 5.82-11.021 0-19.955-8.934-19.955-19.955s8.934-19.955 19.955-19.955c11.016 0 19.947 8.927 19.955 19.941v0.001c-0.018 5.524-2.257 10.521-5.87 14.148l0.001-0.001z" />
<glyph unicode="&#xe927;" glyph-name="question" d="M510 158.023c-22.092 0-40.001 17.909-40.001 40.001s17.909 40.001 40.001 40.001c22.092 0 40.001-17.909 40.001-40.001v0c0-22.092-17.909-40.001-40.001-40.001v0zM550.001 338.029v53.698c72.778 18.978 125.626 84.12 125.626 161.605 0 92.097-74.66 166.757-166.757 166.757-45.195 0-86.191-17.979-116.225-47.175l0.039 0.038c-31.24-29.876-50.658-71.889-50.658-118.438 0-0.168 0-0.336 0.001-0.504v0.026c0-22.092 17.909-40.001 40.001-40.001s40.001 17.909 40.001 40.001v0c0 0.092-0.001 0.202-0.001 0.311 0 23.951 9.971 45.574 25.988 60.943l0.029 0.028c15.887 15.324 37.538 24.765 61.395 24.765 1.424 0 2.839-0.034 4.246-0.1l-0.199 0.007c46.832-1.142 84.361-39.378 84.361-86.379 0-41.397-29.113-75.995-67.983-84.435l-0.57-0.104c-34.118-7.41-59.298-37.347-59.298-73.165 0-0.075 0-0.15 0-0.225v0.012-57.602c0-22.092 17.909-40.001 40.001-40.001s40.001 17.909 40.001 40.001v0zM776.92 9.826c11.611 7.147 19.236 19.788 19.236 34.209 0 22.112-17.925 40.037-40.037 40.037-7.69 0-14.874-2.168-20.974-5.927l0.173 0.099c-64.709-40.158-143.215-63.961-227.28-63.961-240.68 0-435.79 195.11-435.79 435.79s195.11 435.79 435.79 435.79c240.68 0 435.79-195.11 435.79-435.79 0-90.127-27.359-173.863-74.226-243.357l0.984 1.549c-4.508-6.385-7.205-14.329-7.205-22.902 0-22.092 17.909-40.001 40.001-40.001 14.092 0 26.481 7.287 33.607 18.298l0.095 0.157c54.229 79.968 86.576 178.607 86.576 284.8 0 282.62-229.108 511.728-511.728 511.728-141.422 0-269.445-57.368-362.067-150.103l-0.005-0.005c-93.102-92.73-150.713-221.035-150.713-362.795 0-282.779 229.237-512.016 512.016-512.016 98.243 0 190.023 27.669 267.974 75.64l-2.218-1.27z" />
<glyph unicode="&#xe928;" glyph-name="recommendations" d="M694.049 808.009h-122.019c-0.017 0-0.038 0-0.058 0-48.913 0-92.348-23.457-119.67-59.735l-0.276-0.382c-27.597 36.66-71.032 60.117-119.946 60.117-0.121 0-0.243 0-0.364 0h-119.696c-16.569 0-30.001-13.432-30.001-30.001v0-360.009c0-16.569 13.432-30.001 30.001-30.001v0h180.005c16.556-0.033 29.968-13.445 30.001-29.998v-0.003c0-16.569 13.432-30.001 30.001-30.001s30.001 13.432 30.001 30.001v0c0.033 16.556 13.445 29.968 29.998 30.001h182.023c16.569 0 30.001 13.432 30.001 30.001v360.009c0 16.569-13.432 30.001-30.001 30.001v0zM422.026 442.875c-8.894 3.247-19.162 5.125-29.868 5.125-0.047 0-0.093 0-0.14 0h-149.709v300.008h89.427c0.052 0 0.113 0 0.174 0 49.629 0 89.888-40.118 90.117-89.693v-0.022zM663.875 448h-152.019c-0.039 0-0.086 0-0.132 0-10.707 0-20.974-1.878-30.492-5.322l0.624 0.197v215.418c0.066 49.681 40.322 89.937 89.996 90.002h92.139zM933.998 808.009h-29.943v30.001c-0.066 49.701-40.355 89.97-90.057 90.002h-723.995c-49.681-0.066-89.937-40.322-90.002-89.996v-540.020c0.196-49.582 40.402-89.707 89.996-89.772h32.022v-90.002c0.026-16.549 13.448-29.954 30.001-29.954 8.273 0 15.764 3.349 21.191 8.764l69.559 69.559c6.005-44.408 43.631-78.291 89.188-78.371h409.596l111.193-111.193c5.427-5.415 12.918-8.764 21.191-8.764 16.553 0 29.974 13.405 30.001 29.952v89.775h30.001c49.681 0.066 89.937 40.322 90.002 89.996v540.020c-0.065 49.66-40.289 89.904-89.935 90.002h-0.009zM250.774 259.243v0l-68.754-68.812v47.564c0 16.569-13.432 30.001-30.001 30.001v0h-62.017c-16.556 0.033-29.968 13.445-30.001 29.998v540.017c0.033 16.556 13.445 29.968 29.998 30.001h723.995c16.556-0.033 29.968-13.445 30.001-29.998v-540.017c-0.033-16.556-13.445-29.968-29.998-30.001h-541.975c-8.288-0.007-15.794-3.349-21.25-8.755l0.002 0.002zM963.998 177.993c-0.033-16.556-13.445-29.968-29.998-30.001h-60.005c-16.569 0-30.001-13.432-30.001-30.001v0-47.564l-68.754 68.697c-5.421 5.432-12.911 8.797-21.188 8.81h-422.029c-16.556 0.033-29.968 13.445-30.001 29.998v30.292h512.029c49.6 0.065 89.806 40.19 90.002 89.753v450.031h30.001c16.556-0.033 29.968-13.445 30.001-29.998v-0.003z" />
<glyph unicode="&#xe929;" glyph-name="report" d="M1003.974 542.496h-127.991c-11.041 0-19.991-8.95-19.991-19.991v0-100.982c0-11.050 8.958-20.009 20.009-20.009s20.009 8.958 20.009 20.009v0 80.991h88.009v-526.497h-88.045v295.503c0 11.050-8.958 20.009-20.009 20.009s-20.009-8.958-20.009-20.009v0-295.503h-39.982v413.995c0 11.041-8.95 19.991-19.991 19.991v0h-127.991c-11.041 0-19.991-8.95-19.991-19.991v0-413.995h-40.017v273.988c0 11.041-8.95 19.991-19.991 19.991v0h-127.991c-11.041 0-19.991-8.95-19.991-19.991v0-273.988h-40.017v159.253c0 11.041-8.95 19.991-19.991 19.991v0h-127.991c-11.041 0-19.991-8.95-19.991-19.991v0-159.253h-172.014c-11.033 0.020-19.971 8.958-19.991 19.989v903.986c0.020 11.033 8.958 19.971 19.989 19.991h515.936v-131.996c0.14-33.085 26.923-59.868 59.995-60.008h132.010v-245.987c0-11.050 8.958-20.009 20.009-20.009s20.009 8.958 20.009 20.009v0 265.836c0 0.015 0 0.032 0 0.049 0 5.517-2.235 10.512-5.849 14.129l-192.040 192.146c-3.617 3.614-8.612 5.848-14.129 5.848-0.017 0-0.034 0-0.052 0h-535.887c-33.085-0.14-59.868-26.923-60.008-59.995v-904.104c0.2-33.039 26.96-59.762 59.995-59.902h943.979c11.041 0 19.991 8.95 19.991 19.991v0 566.514c0 11.041-8.95 19.991-19.991 19.991v0zM615.96 891.698l123.702-123.702h-103.711c-11.033 0.020-19.971 8.958-19.991 19.989v0.002zM360.013-23.983h-88.009v139.227h88.009zM568.003-23.983h-88.009v253.82h88.009zM775.993-23.983h-88.009v394.004h88.009zM890.125 364.386c-3.618 3.622-8.619 5.862-14.142 5.862-11.041 0-19.991-8.95-19.991-19.991s8.95-19.991 19.991-19.991c11.023 0 19.963 8.922 19.991 19.939v0.003c0 0.006 0 0.013 0 0.020 0 5.526-2.234 10.531-5.849 14.159l0.001-0.001zM291.179 850.546c-11.041 0-19.991-8.95-19.991-19.991v-35.976c-92.634-10.416-163.978-88.312-163.978-182.87 0-101.597 82.361-183.958 183.958-183.958 94.559 0 172.454 71.344 182.793 163.14l0.077 0.838h35.976c11.041 0 19.991 8.95 19.991 19.991v0c-0.161 131.836-106.991 238.666-238.812 238.827h-0.015zM291.179 467.743c-0.027 0-0.059 0-0.090 0-79.497 0-143.941 64.445-143.941 143.941 0 72.477 53.566 132.443 123.269 142.468l0.772 0.091v-142.559c0-11.041 8.95-19.991 19.991-19.991v0h142.559c-10.259-70.383-70.15-123.845-142.548-123.95h-0.011zM311.17 631.675v0 177.862c93.926-9.91 167.876-83.812 177.787-176.848l0.075-0.872zM509.98 371.51h-381.989c-11.041 0-19.991-8.95-19.991-19.991s8.95-19.991 19.991-19.991h381.989c11.041 0 19.991 8.95 19.991 19.991s-8.95 19.991-19.991 19.991v0zM255.982 274.994h-127.991c-11.050 0-20.009-8.958-20.009-20.009s8.958-20.009 20.009-20.009v0h127.991c11.050 0 20.009 8.958 20.009 20.009s-8.958 20.009-20.009 20.009v0zM370.292 269.146c-3.618 3.622-8.619 5.862-14.142 5.862-11.041 0-19.991-8.95-19.991-19.991s8.95-19.991 19.991-19.991c11.023 0 19.963 8.922 19.991 19.939v0.003c-0.003 5.532-2.236 10.542-5.849 14.179l0.001-0.001z" />
<glyph unicode="&#xe92a;" glyph-name="right-arrow" d="M167.798 839.529l425.691-391.529-425.691-391.529 131.399-120.471 557.004 512-557.004 512z" />
<glyph unicode="&#xe92b;" glyph-name="right-nevigation" d="M605.033 904.308l-65.825-71.529 306.607-334.078h-845.815v-101.702h845.815l-306.682-334.003 65.825-71.304 419.117 456.27z" />
<glyph unicode="&#xe92c;" glyph-name="select-down-arrow" d="M903.227 803.913l-391.267-440.145-391.187 440.145-120.773-135.8 511.96-576.025 511.96 576.025z" />
<glyph unicode="&#xe92d;" glyph-name="settings" d="M544.142-64h-64.284c-52.035 0.065-94.2 42.23-94.265 94.259v21.738c-24.967 8.043-46.196 17.061-66.433 27.709l2.262-1.085-15.417-15.417c-17.060-17.070-40.634-27.628-66.674-27.628s-49.613 10.558-66.673 27.628l-45.511 45.511c-17.070 17.060-27.628 40.634-27.628 66.674s10.558 49.613 27.628 66.673l15.417 15.417c-9.562 17.974-18.581 39.203-25.796 61.247l-0.828 2.924h-21.675c-52.015 0.065-94.168 42.198-94.265 94.199v64.293c0.065 52.035 42.23 94.2 94.259 94.265h21.738c8.064 24.968 17.101 46.194 27.766 66.429l-1.085-2.259-15.417 15.417c-17.070 17.060-27.628 40.634-27.628 66.674s10.558 49.613 27.628 66.673l45.511 45.511c17.060 17.070 40.634 27.628 66.674 27.628s49.613-10.558 66.673-27.628l15.417-15.417c17.973 9.56 39.201 18.578 61.245 25.795l2.926 0.829v21.675c0.065 51.995 42.165 94.136 94.139 94.265h64.296c52.035-0.065 94.2-42.23 94.265-94.259v-21.738c24.967-8.043 46.196-17.061 66.433-27.709l-2.262 1.085 15.417 15.417c17.060 17.070 40.634 27.628 66.674 27.628s49.613-10.558 66.673-27.628l45.511-45.511c17.070-17.060 27.628-40.634 27.628-66.674s-10.558-49.613-27.628-66.673l-15.417-15.417c9.562-17.974 18.581-39.203 25.796-61.247l0.828-2.924h21.732c51.991-0.097 94.111-42.217 94.208-94.199v-64.293c-0.065-52.035-42.23-94.2-94.259-94.265h-21.738c-8.044-24.969-17.063-46.197-27.709-66.435l1.085 2.264 15.417-15.417c17.070-17.060 27.628-40.634 27.628-66.674s-10.558-49.613-27.628-66.673l-45.511-45.511c-17.060-17.070-40.634-27.628-66.674-27.628s-49.613 10.558-66.673 27.628l-15.417 15.417c-17.973-9.56-39.201-18.578-61.245-25.795l-2.926-0.829v-21.732c-0.097-51.991-42.217-94.111-94.199-94.208h-0.009zM331.435 141.653c26.377-15.899 56.871-28.93 89.18-37.502l2.468-0.557c13.161-3.349 22.743-15.089 22.756-29.069v-44.317c0-18.851 15.282-34.133 34.133-34.133h64.284c18.851 0 34.133 15.282 34.133 34.133v0 44.316c0.013 13.981 9.594 25.721 22.548 29.025l0.208 0.045c34.777 9.128 65.271 22.159 93.251 38.95l-1.603-0.892c4.365 2.624 9.633 4.176 15.263 4.176 8.28 0 15.777-3.357 21.202-8.784l31.403-31.403c6.187-6.236 14.76-10.097 24.235-10.097s18.048 3.86 24.232 10.094l45.513 45.513c6.236 6.187 10.097 14.76 10.097 24.235s-3.86 18.048-10.094 24.232l-31.405 31.405c-5.427 5.426-8.784 12.922-8.784 21.202 0 5.63 1.552 10.898 4.252 15.399l-0.076-0.136c15.9 26.377 28.931 56.871 37.502 89.181l0.557 2.467c3.349 13.161 15.089 22.743 29.069 22.756h44.318c18.851 0 34.133 15.282 34.133 34.133v0 64.114c0 18.851-15.282 34.133-34.133 34.133v0h-44.316c-13.981 0.013-25.721 9.594-29.025 22.548l-0.045 0.208c-9.128 34.777-22.159 65.271-38.95 93.251l0.892-1.603c-2.624 4.365-4.176 9.633-4.176 15.263 0 8.28 3.357 15.777 8.784 21.202l31.403 31.403c6.236 6.187 10.097 14.76 10.097 24.235s-3.86 18.048-10.094 24.232l-45.513 45.513c-6.187 6.236-14.76 10.097-24.235 10.097s-18.048-3.86-24.232-10.094l-31.405-31.405c-5.426-5.427-12.922-8.784-21.202-8.784-5.63 0-10.898 1.552-15.399 4.252l0.136-0.076c-26.377 15.899-56.871 28.93-89.18 37.502l-2.468 0.557c-13.161 3.349-22.743 15.089-22.756 29.069v44.090c0 18.851-15.282 34.133-34.133 34.133h-64.398c-18.851 0-34.133-15.282-34.133-34.133v0-44.316c-0.013-13.981-9.594-25.721-22.548-29.025l-0.208-0.045c-34.777-9.128-65.271-22.159-93.251-38.95l1.603 0.892c-4.365-2.624-9.633-4.176-15.263-4.176-8.28 0-15.777 3.357-21.202 8.784l-31.403 31.403c-6.187 6.236-14.76 10.097-24.235 10.097s-18.048-3.86-24.232-10.094l-45.513-45.513c-6.236-6.187-10.097-14.76-10.097-24.235s3.86-18.048 10.094-24.232l31.405-31.405c5.427-5.426 8.784-12.922 8.784-21.202 0-5.63-1.552-10.898-4.252-15.399l0.076 0.136c-15.9-26.377-28.931-56.871-37.502-89.181l-0.557-2.467c-3.349-13.161-15.089-22.743-29.069-22.756h-44.090c-18.851 0-34.133-15.282-34.133-34.133v-64.284c0-18.851 15.282-34.133 34.133-34.133v0h44.316c13.981-0.013 25.721-9.594 29.025-22.548l0.045-0.208c9.128-34.777 22.159-65.271 38.95-93.251l-0.892 1.603c2.624-4.365 4.176-9.633 4.176-15.263 0-8.28-3.357-15.777-8.784-21.202l-31.403-31.403c-6.236-6.187-10.097-14.76-10.097-24.235s3.86-18.048 10.094-24.232l45.513-45.513c6.187-6.236 14.76-10.097 24.235-10.097s18.048 3.86 24.232 10.094l31.405 31.405c5.447 5.402 12.948 8.741 21.23 8.741 5.616 0 10.873-1.535 15.375-4.209l-0.139 0.077zM512 225.166c-123.036 0-222.777 99.741-222.777 222.777s99.741 222.777 222.777 222.777c123.036 0 222.777-99.741 222.777-222.777v0c-0.162-122.971-99.806-222.615-222.761-222.777h-0.015zM512 610.759c-89.921 0-162.816-72.895-162.816-162.816s72.895-162.816 162.816-162.816c89.921 0 162.816 72.895 162.816 162.816v0c-0.097 89.882-72.934 162.719-162.807 162.816h-0.009z" />
<glyph unicode="&#xe92e;" glyph-name="shared-liberary" d="M660.636-30.953v118.119c0 0.042 0 0.091 0 0.141 0 7.226 1.562 14.086 4.368 20.263l-0.125-0.308 54.706 123.33c4.612 9.85 7.345 21.378 7.443 33.533v35.24h214.729v578.019h-115.589v82.617h-182.054c-57.214-0.071-106.859-32.408-131.722-79.79l-0.391-0.817c-25.28 48.251-75.007 80.607-132.29 80.607-0.042 0-0.084 0-0.126 0h-181.378v-82.617h-115.589v-578.019h214.654v-32.451c0.019-14.731 3.88-28.556 10.635-40.532l-0.215 0.414 65.944-119.087c3.921-6.928 6.238-15.212 6.252-24.036v-114.997h-379.888v-33.047h1024v33.047zM908.039 844.411v-512h-346.469v-16.523c-0.042-27.36-22.21-49.528-49.566-49.57h-0.004c-2.194 0.142-4.209 0.407-6.181 0.793l0.301-0.049c-9.343 38.489-28.016 71.737-53.516 98.401l0.076-0.080h373.487v479.028zM231.252 926.953h148.859c63.76-0.212 115.366-51.948 115.366-115.737 0-0.026 0-0.053 0-0.079v0.004-131.889h32.972v131.889c0 0.022 0 0.048 0 0.074 0 63.894 51.775 115.695 115.659 115.738h148.863v-528.449h-264.522v247.701h-32.972v-247.776h-66.093v82.617c0 0.044 0 0.097 0 0.149 0 54.742-44.335 99.13-99.058 99.214h-0.008c-18.251 0-33.047-14.795-33.047-33.047v0-148.859h-66.019zM115.589 332.411v512h82.617v-479.028h99.066v-33.047zM336.495 243.096c-3.915 6.929-6.231 15.212-6.252 24.034v279.935c36.502 0 66.093-29.591 66.093-66.093v0-105.913l29.027-29.027c33.058-32.896 53.516-78.429 53.516-128.739 0-0.192 0-0.383-0.001-0.575v0.030h33.047c0 5.582-0.372 11.090-0.819 16.598h0.819c39.751 0.051 72.926 28.143 80.81 65.554l0.095 0.539h100.852v-35.503c0-0.042 0-0.091 0-0.141 0-7.226-1.562-14.086-4.368-20.263l0.125 0.308-54.706-123.032c-2.5-5.654-4.47-12.234-5.592-19.098l-0.064-0.476h-218.153c-1.809 8.672-4.717 16.363-8.626 23.423l0.216-0.425zM412.934 2.093h148.859v33.047h-148.859v33.047h214.654v-33.047h-32.972v-33.047h33.047v-33.047h-214.729zM644.112 530.542h33.047v-33.047h-33.047zM710.206 530.542h33.047v-33.047h-33.047zM578.093 530.542h33.047v-33.047h-33.047zM561.57 464.523h198.206v-33.047h-198.206zM561.57 596.636h198.206v-33.047h-198.206zM561.57 712.224h198.206v-33.047h-198.206zM561.57 778.318h198.206v-33.047h-198.206zM561.57 844.411h198.206v-33.047h-198.206zM346.841 778.318h33.047v-33.047h-33.047zM412.934 778.318h33.047v-33.047h-33.047zM280.748 778.318h33.047v-33.047h-33.047zM264.224 844.411h198.206v-33.047h-198.206zM264.224 712.224h198.206v-33.047h-198.206zM264.224 646.206h198.206v-33.047h-198.206z" />
<glyph unicode="&#xe92f;" glyph-name="tool-setting" d="M693.686 649.711c-11.050 0-20.007-8.958-20.007-20.007s8.958-20.007 20.007-20.007c11.050 0 20.007 8.958 20.007 20.007v0c0 11.050-8.958 20.007-20.007 20.007v0zM330.314 286.304c-11.050 0-20.007-8.958-20.007-20.007s8.958-20.007 20.007-20.007c11.050 0 20.007 8.958 20.007 20.007v0c0 11.050-8.958 20.007-20.007 20.007v0zM999.114 836.962c-1.359 0.33-2.919 0.519-4.523 0.519-5.544 0-10.561-2.259-14.179-5.907l-0.001-0.001-82.918-83.587h-39.768l-43.748 45.333v40.332l81.72 82.953c3.468 3.593 5.605 8.491 5.605 13.888 0 8.705-5.559 16.111-13.32 18.863l-0.14 0.043c-19.027 6.614-40.957 10.435-63.781 10.435-110.536 0-200.143-89.607-200.143-200.143 0-18.379 2.477-36.18 7.116-53.086l-0.329 1.404-147.307-147.307-245.406 246.146v48.292c-0.003 7.249-3.86 13.596-9.633 17.104l-0.089 0.050-141.39 84.855c-2.941 1.801-6.502 2.868-10.311 2.868-5.521 0-10.519-2.24-14.134-5.861v0l-56.535-56.57c-3.616-3.62-5.852-8.619-5.852-14.14 0-3.807 1.063-7.365 2.908-10.394l-0.050 0.088 84.82-141.425c3.558-5.862 9.905-9.719 17.154-9.722h48.257l245.442-246.005-146.744-146.744c-15.449 4.281-33.189 6.742-51.504 6.742-110.517 0-200.108-89.591-200.108-200.108 0-22.741 3.793-44.595 10.782-64.965l-0.42 1.407c2.75-7.982 10.197-13.614 18.958-13.614 5.545 0 10.563 2.256 14.187 5.899l0.001 0.001 82.918 83.552h39.803l45.545-45.545v-39.979l-83.552-83.023c-3.645-3.625-5.9-8.643-5.9-14.187 0-8.762 5.632-16.208 13.474-18.916l0.141-0.042c18.989-6.59 40.874-10.396 63.649-10.396 66.702 0 125.779 32.647 162.123 82.833l0.402 0.583c23.677 32.205 37.89 72.644 37.89 116.404 0 18.553-2.555 36.509-7.332 53.536l0.334-1.392 117.86 117.86 27.017-29.342-12.399-12.399c-2.888-3.444-4.642-7.924-4.642-12.814 0-11.050 8.958-20.007 20.007-20.007 4.89 0 9.37 1.754 12.845 4.667l-0.031-0.025 11.201 11.201 253.895-275.77c21.632-21.229 51.303-34.332 84.034-34.332 66.279 0 120.009 53.73 120.009 120.009 0 32.731-13.103 62.402-34.351 84.052l0.018-0.019-0.634 0.599-275.453 252.592 11.096 11.096c2.888 3.444 4.642 7.924 4.642 12.814 0 11.050-8.958 20.007-20.007 20.007-4.89 0-9.37-1.754-12.845-4.667l0.031 0.025-12.293-12.328-29.377 26.982 118.423 118.423c15.518-4.32 33.337-6.804 51.736-6.804 110.517 0 200.108 89.591 200.108 200.108 0 22.842-3.827 44.79-10.875 65.238l0.422-1.406c-2.241 6.547-7.607 11.481-14.271 13.076l-0.136 0.027zM175.575 756.123c-3.569 3.507-8.467 5.672-13.871 5.672-0.077 0-0.154 0-0.23-0.001h-45.216l-71.047 118.529 34.484 34.484 118.318-71.082v-45.157c0.013-5.502 2.245-10.481 5.848-14.090l251.324-251.887-28.179-28.179zM684.316 366.016l276.544-253.614c14.474-14.479 23.427-34.479 23.427-56.57 0-44.191-35.824-80.014-80.014-80.014-22.1 0-42.107 8.959-56.587 23.444v0l-254.142 276.051zM654.834 393.103l-88.413-88.307-27.017 29.342 86.017 86.017zM823.909 600.045c-0.038 0-0.083 0-0.128 0-18.244 0-35.774 3.056-52.106 8.685l1.124-0.337c-1.9 0.659-4.090 1.039-6.369 1.039-5.532 0-10.54-2.241-14.167-5.865v0l-395.778-395.919c-3.626-3.622-5.87-8.627-5.87-14.157 0-2.283 0.382-4.476 1.086-6.519l-0.042 0.141c5.271-15.196 8.315-32.709 8.315-50.934 0-88.395-71.608-160.065-159.98-160.164h-0.010c-6.205 0.001-12.329 0.346-18.354 1.018l0.742-0.067 63.403 63.016c3.629 3.6 5.885 8.578 5.918 14.083v56.682c-0.013 5.502-2.245 10.481-5.848 14.090v0l-56.957 57.31c-3.609 3.603-8.587 5.834-14.087 5.847h-56.642c-5.512-0.033-10.49-2.289-14.088-5.916l-0.001-0.001-63.016-63.403c-0.606 5.256-0.951 11.346-0.951 17.517 0 0.034 0 0.067 0 0.101v-0.005c0.093 88.386 71.765 160.001 160.164 160.001 18.238 0 35.763-3.048 52.096-8.663l-1.126 0.337c1.905-0.665 4.102-1.049 6.388-1.049 5.528 0 10.531 2.246 14.147 5.874l395.744 395.568c3.626 3.622 5.87 8.627 5.87 14.157 0 2.283-0.382 4.476-1.086 6.519l0.042-0.141c-5.279 15.206-8.328 32.731-8.328 50.969 0 88.38 71.601 160.037 159.959 160.129h0.009c0.011 0 0.023 0 0.036 0 6.316 0 12.549-0.358 18.679-1.056l-0.75 0.069-62.206-63.122c-3.55-3.603-5.742-8.552-5.742-14.014 0-0.027 0-0.053 0-0.080v0.004-56.535c0-0.003 0-0.006 0-0.009 0-5.39 2.135-10.282 5.606-13.875l-0.006 0.006 55.231-57.274c3.637-3.76 8.727-6.094 14.362-6.094 0.016 0 0.031 0 0.047 0h56.568c5.512 0.029 10.492 2.286 14.088 5.916l0.002 0.002 63.016 63.403c0.606-5.256 0.951-11.347 0.951-17.519 0-0.033 0-0.066 0-0.099v0.005c-0.1-88.319-71.669-159.888-159.978-159.988h-0.009zM623.132 587.259l-250.443-250.373c-2.888-3.444-4.642-7.924-4.642-12.814 0-11.050 8.958-20.007 20.007-20.007 4.89 0 9.37 1.754 12.845 4.667l-0.031-0.025 250.443 250.267c4.41 3.696 7.194 9.205 7.194 15.366 0 11.050-8.958 20.007-20.007 20.007-6.16 0-11.67-2.784-15.34-7.162l-0.025-0.031zM875.724 56.009c3.696-4.41 9.205-7.194 15.366-7.194 11.050 0 20.007 8.958 20.007 20.007 0 6.16-2.784 11.67-7.162 15.34l-0.031 0.025-180.277 179.643c-3.444 2.888-7.924 4.642-12.814 4.642-11.050 0-20.007-8.958-20.007-20.007 0-4.89 1.754-9.37 4.667-12.845l-0.025 0.031z" />
<glyph unicode="&#xe930;" glyph-name="view" d="M1017.505 467.908c-9.135 12.515-227.063 306.271-505.505 306.271s-496.158-293.703-505.505-306.218c-4.064-5.512-6.505-12.438-6.505-19.934s2.441-14.422 6.57-20.027l-0.065 0.093c9.135-12.515 227.063-306.271 505.505-306.271s496.37 293.914 505.505 306.271c4.060 5.504 6.498 12.421 6.498 19.908s-2.438 14.404-6.564 20l0.065-0.093zM512.211 189.201c-205.043 0-382.68 195.063-435.221 258.746 52.488 63.842 229.756 258.746 435.221 258.746s382.627-195.010 435.221-258.746c-52.7-63.789-229.967-258.746-435.221-258.746zM512 650.561c-111.871 0-202.561-90.69-202.561-202.561s90.69-202.561 202.561-202.561c111.871 0 202.561 90.69 202.561 202.561v0c-0.12 111.823-90.738 202.441-202.55 202.561h-0.011zM512 312.977c-74.571 0-135.023 60.452-135.023 135.023s60.452 135.023 135.023 135.023c74.571 0 135.023-60.452 135.023-135.023v0c-0.090-74.535-60.488-134.933-135.014-135.023h-0.009z" />
</font>
</defs>
</svg>
