<svg xmlns="http://www.w3.org/2000/svg" id="prefix__dialog" width="17.783" height="16.672" viewBox="0 0 17.783 16.672">
    <defs>
        <style>
            .prefix__cls-1{fill:#fff}
        </style>
    </defs>
    <g id="prefix__Group_3" data-name="Group 3" transform="translate(3.161 2.084)">
        <g id="prefix__Group_2" data-name="Group 2">
            <path id="prefix__Path_44" d="M99.892 76h-2.119a2.6 2.6 0 00-2.084 1.044A2.6 2.6 0 0093.6 76h-2.079a.521.521 0 00-.521.521v6.252a.521.521 0 00.521.521h3.126a.522.522 0 01.521.521.521.521 0 001.042 0 .522.522 0 01.521-.521h3.161a.521.521 0 00.521-.521v-6.252a.521.521 0 00-.521-.521zm-4.724 6.341a1.556 1.556 0 00-.521-.089h-2.6v-5.21H93.6a1.565 1.565 0 011.568 1.558zm4.2-.089h-2.64a1.556 1.556 0 00-.521.089V78.6a1.565 1.565 0 011.563-1.563h1.6z" class="prefix__cls-1" data-name="Path 44" transform="translate(-91 -76)"/>
        </g>
    </g>
    <g id="prefix__Group_5" data-name="Group 5">
        <g id="prefix__Group_4" data-name="Group 4">
            <path id="prefix__Path_45" d="M16.22 18.084h-.52v-.521A1.565 1.565 0 0014.136 16H1.563A1.565 1.565 0 000 17.563v9.378A1.565 1.565 0 001.563 28.5h.556v1.563a.521.521 0 00.889.368l1.208-1.208a1.565 1.565 0 001.549 1.361h7.113l1.931 1.931a.521.521 0 00.889-.368v-1.559h.521a1.565 1.565 0 001.563-1.563v-9.378a1.565 1.565 0 00-1.562-1.563zm-11.865 9.53l-1.194 1.195v-.826a.521.521 0 00-.521-.521H1.563a.522.522 0 01-.521-.521v-9.378a.522.522 0 01.521-.521h12.573a.522.522 0 01.521.521v9.378a.522.522 0 01-.521.521H4.724a.525.525 0 00-.369.152zm12.386 1.411a.522.522 0 01-.521.521h-1.042a.521.521 0 00-.521.521v.826L13.463 29.7a.521.521 0 00-.368-.153H5.766a.522.522 0 01-.521-.521V28.5h8.892a1.565 1.565 0 001.563-1.559v-7.815h.521a.522.522 0 01.521.521z" class="prefix__cls-1" data-name="Path 45" transform="translate(0 -16)"/>
        </g>
    </g>
</svg>
