<svg xmlns="http://www.w3.org/2000/svg" width="16" height="16" viewBox="0 0 16 16">
  <path id="Path_196" data-name="Path 196" d="M15.574,2.6,13.392.415a1.487,1.487,0,0,0-2.058,0L1.56,10.287a.366.366,0,0,0-.092.156l-1.455,5.1a.364.364,0,0,0,.45.45l5.091-1.456a.365.365,0,0,0,.156-.092l9.863-9.783a1.456,1.456,0,0,0,0-2.059Zm-5.824.463L11.088,4.4,4.1,11.388l-.5-1a.364.364,0,0,0-.325-.2H2.69ZM.893,15.109l.474-1.658,1.184,1.184Zm4.2-1.2-1.74.5L1.595,12.651l.5-1.74h.956l.627,1.254a.364.364,0,0,0,.163.163l1.254.627v.956Zm.727-.6v-.582a.364.364,0,0,0-.2-.325l-1-.5L11.6,4.914l1.339,1.339Zm9.243-9.16-1.6,1.589-3.2-3.2,1.588-1.6a.744.744,0,0,1,1.028,0l2.182,2.182a.727.727,0,0,1,0,1.027Z" transform="translate(0 -0.002)"/>
</svg>
