<svg xmlns="http://www.w3.org/2000/svg" width="17.557" height="17.557" viewBox="0 0 17.557 17.557">
    <path id="prefix__globe" d="M8.778 0a8.778 8.778 0 108.778 8.778A8.788 8.788 0 008.778 0zm-.514 4.309a12 12 0 01-2.3-.322c.118-.28.246-.549.385-.8a4.442 4.442 0 011.915-2.048zm0 1.03v2.925H5.051a12.927 12.927 0 01.562-3.307 13.024 13.024 0 002.651.381zm0 3.954v2.926a13.024 13.024 0 00-2.651.381 12.927 12.927 0 01-.562-3.307zm0 3.955v3.17a4.442 4.442 0 01-1.912-2.044 10.022 10.022 0 01-.385-.8 12 12 0 012.3-.322zm1.029 0a12 12 0 012.3.322c-.118.28-.246.549-.385.8a4.442 4.442 0 01-1.912 2.044zm0-1.03V9.293h3.213a12.927 12.927 0 01-.562 3.307 13.024 13.024 0 00-2.651-.382zm0-3.954V5.338a13.024 13.024 0 002.651-.381 12.927 12.927 0 01.562 3.307zm0-3.955v-3.17A4.442 4.442 0 0111.2 3.183c.138.255.266.524.385.8a12 12 0 01-2.3.322zm2.816-1.617a7.809 7.809 0 00-.832-1.25 7.759 7.759 0 012.743 1.634 9.72 9.72 0 01-1.435.621 10.422 10.422 0 00-.476-1.005zm-6.661 0a10.422 10.422 0 00-.476 1 9.734 9.734 0 01-1.435-.621A7.759 7.759 0 016.28 1.442a7.812 7.812 0 00-.832 1.25zm-.825 1.972a13.775 13.775 0 00-.6 3.6H1.046a7.713 7.713 0 011.759-4.418 10.58 10.58 0 001.818.817zm-.6 4.629a13.774 13.774 0 00.6 3.6 10.58 10.58 0 00-1.818.817 7.713 7.713 0 01-1.759-4.417zm.95 4.567a10.422 10.422 0 00.476 1 7.818 7.818 0 00.832 1.25 7.757 7.757 0 01-2.743-1.634 9.72 9.72 0 011.435-.621zm7.138 1a10.422 10.422 0 00.476-1 9.734 9.734 0 011.435.621 7.759 7.759 0 01-2.743 1.634 7.812 7.812 0 00.83-1.251zm.824-1.971a13.775 13.775 0 00.6-3.6h2.975a7.713 7.713 0 01-1.759 4.418 10.58 10.58 0 00-1.818-.817zm.6-4.629a13.774 13.774 0 00-.6-3.6 10.58 10.58 0 001.818-.817 7.713 7.713 0 011.757 4.421zm0 0" style="fill:#fff"/>
</svg>
