<svg xmlns="http://www.w3.org/2000/svg" id="prefix__search" width="17.451" height="17.449" viewBox="0 0 17.451 17.449">
    <defs>
        <style>
            .prefix__cls-1{fill:#fff}
        </style>
    </defs>
    <path id="prefix__Path_70" d="M445.188 221.867h-1.163a.291.291 0 000 .582h1.163a.291.291 0 01.291.291v2.908a.291.291 0 01-.291.291h-1.163a.291.291 0 000 .582h1.163a.872.872 0 00.873-.872v-2.908a.872.872 0 00-.873-.874zm0 0" class="prefix__cls-1" data-name="Path 70" transform="translate(-428.61 -214.305)"/>
    <path id="prefix__Path_71" d="M.872 210.035h3.49a.291.291 0 100-.582H.872a.291.291 0 01-.291-.291v-2.908a.291.291 0 01.291-.291h3.49a.291.291 0 100-.582H2.036v-.291a.291.291 0 00-.582 0v.291H.872a.872.872 0 00-.873.872v2.908a.872.872 0 00.873.872zm0 0" class="prefix__cls-1" data-name="Path 71" transform="translate(0 -197.82)"/>
    <path id="prefix__Path_72" d="M182.98 179.2a3.781 3.781 0 103.781 3.781 3.781 3.781 0 00-3.781-3.781zm0 6.98a3.2 3.2 0 113.2-3.2 3.2 3.2 0 01-3.2 3.199zm0 0" class="prefix__cls-1" data-name="Path 72" transform="translate(-173.091 -173.091)"/>
    <path id="prefix__Path_73" d="M42.668 256.291v1.745a.291.291 0 00.582 0v-1.745a.291.291 0 10-.582 0zm0 0" class="prefix__cls-1" data-name="Path 73" transform="translate(-41.214 -247.275)"/>
    <path id="prefix__Path_74" d="M153.808 152.412a.291.291 0 00-.409 0l-.281.281-.471-.471h-.006a4.963 4.963 0 10-.409.409v.006l.471.471-.336.336a.291.291 0 000 .414l2.4 2.348a1.018 1.018 0 001.437-1.442zm-4.857.891a4.363 4.363 0 114.363-4.363 4.363 4.363 0 01-4.363 4.36zm4.656-.274l1.694 1.658-.617.617-1.694-1.656zm2.2 2.763a.436.436 0 01-.619 0l-.084-.082.617-.617.087.084a.436.436 0 010 .617zm0 0" class="prefix__cls-1" data-name="Path 74" transform="translate(-139.062 -139.052)"/>
    <path id="prefix__Path_75" d="M226.4 256.008a.291.291 0 00-.39.13l-.865 1.73-.638-1.7a.291.291 0 00-.545 0l-.638 1.7-.864-1.73a.291.291 0 10-.521.26l1.163 2.327a.287.287 0 00.275.161.291.291 0 00.257-.188l.6-1.6.6 1.6a.291.291 0 00.257.189h.015a.291.291 0 00.262-.161l1.163-2.327a.291.291 0 00-.131-.391zm0 0" class="prefix__cls-1" data-name="Path 75" transform="translate(-214.341 -247.253)"/>
    <path id="prefix__Path_76" d="M.582 1.745h4.362a.582.582 0 00.582-.582V.582A.582.582 0 004.944 0H.582A.582.582 0 000 .582v.582a.582.582 0 00.582.582zm0-1.163h4.362v.582H.582zm0 0" class="prefix__cls-1" data-name="Path 76"/>
    <path id="prefix__Path_77" d="M238.934 68.847v.582a.582.582 0 00.582.582h4.363a.582.582 0 00.582-.582v-.582a.582.582 0 00-.582-.582h-4.363a.582.582 0 00-.582.582zm4.944.582h-4.363v-.582h4.363zm0 0" class="prefix__cls-1" data-name="Path 77" transform="translate(-230.79 -65.939)"/>
    <path id="prefix__Path_78" d="M179.781 1.745h2.327a.582.582 0 00.582-.582V.582a.582.582 0 00-.582-.582h-2.327a.582.582 0 00-.582.582v.582a.582.582 0 00.582.582zm0-1.163h2.327v.582h-2.327zm0 0" class="prefix__cls-1" data-name="Path 78" transform="translate(-173.092)"/>
    <path id="prefix__Path_79" d="M120.047 68.266a.582.582 0 00-.582.582v.582a.582.582 0 00.582.582h2.327a.582.582 0 00.582-.582v-.582a.582.582 0 00-.582-.582zm0 1.163v-.582h2.327v.582zm0 0" class="prefix__cls-1" data-name="Path 79" transform="translate(-115.393 -65.939)"/>
    <path id="prefix__Path_80" d="M.582 70.011h.873v.289a.291.291 0 10.582 0v-.291h.872a.582.582 0 00.582-.582v-.582a.582.582 0 00-.582-.582H.582a.582.582 0 00-.582.584v.582a.582.582 0 00.582.582zm0-1.163h2.326v.582H.582zm0 0" class="prefix__cls-1" data-name="Path 80" transform="translate(0 -65.939)"/>
    <path id="prefix__Path_81" d="M299.249 1.745h1.163a.582.582 0 00.582-.582V.582a.582.582 0 00-.581-.582h-1.163a.582.582 0 00-.582.582v.582a.582.582 0 00.582.582zm0-1.163h1.163v.582h-1.163zm0 0" class="prefix__cls-1" data-name="Path 81" transform="translate(-288.488)"/>
    <path id="prefix__Path_82" d="M420.751 68.266h-2.036a.582.582 0 00-.582.582v.582a.582.582 0 00.582.582h2.036a.582.582 0 00.582-.582v-.582a.582.582 0 00-.582-.582zm-2.036 1.163v-.582h2.036v.582zm0 0" class="prefix__cls-1" data-name="Path 82" transform="translate(-403.882 -65.939)"/>
    <path id="prefix__Path_83" d="M387.781 0h-3.2a.582.582 0 00-.581.582v.582a.582.582 0 00.582.582h3.2a.582.582 0 00.582-.582V.582a.582.582 0 00-.583-.582zm-3.2 1.163V.582h3.2v.582zm0 0" class="prefix__cls-1" data-name="Path 83" transform="translate(-370.913)"/>
    <path id="prefix__Path_84" d="M42.959 153.6a.291.291 0 00-.291.291v.582a.291.291 0 10.582 0v-.582a.291.291 0 00-.291-.291zm0 0" class="prefix__cls-1" data-name="Path 84" transform="translate(-41.214 -148.367)"/>
</svg>
