<svg xmlns="http://www.w3.org/2000/svg" id="prefix__lab" width="48.038" height="48.034" viewBox="0 0 48.038 48.034">
    <defs>
        <style>
            .prefix__cls-1{fill:#fff}
        </style>
    </defs>
    <path id="prefix__Path_23" d="M78.009 219.024a.938.938 0 10-.663-.275.946.946 0 00.663.275zm0 0" class="prefix__cls-1" data-name="Path 23" transform="translate(-69.839 -196.821)"/>
    <path id="prefix__Path_24" d="M40.049 134.385v-14.017a.938.938 0 000-1.876h-9.006a.938.938 0 100 1.876v14.017a12.55 12.55 0 00-2.889 1.586v-8.211a.938.938 0 00-.188-1.857H18.96a.938.938 0 00-.188 1.857v11.033l-2.535-4.2v-14.22a.938.938 0 100-1.876H7.232a.938.938 0 000 1.876v4.565a.938.938 0 101.876 0v-4.565h5.252v14.477a.939.939 0 00.135.484l4.277 7.094v8.336a4.662 4.662 0 00.46 2.026 5.008 5.008 0 01-2.737.789H6.971a5.083 5.083 0 01-4.353-7.707l.189-.314h9.4a.938.938 0 100-1.876H3.939l5.033-8.347a.939.939 0 00.135-.484v-2.411a.938.938 0 00-1.876 0v2.15L1.012 144.9a6.959 6.959 0 005.96 10.552H16.5a6.85 6.85 0 003.876-1.168 4.677 4.677 0 005.961.183c.233.255.477.5.729.735a.938.938 0 00.637.25h15.689a.94.94 0 00.638-.25 12.493 12.493 0 00-3.981-20.821zm-7.779 1.555a.938.938 0 00.649-.892v-14.68h5.254v14.679a.938.938 0 00.649.892 10.587 10.587 0 015.866 4.693H28.154v-2.209a10.654 10.654 0 014.117-2.483zm-5.993-8.16v6h-5.629v-6zm-2.814 25.8a2.818 2.818 0 01-2.815-2.814v-15.1h5.629v15.1a2.818 2.818 0 01-2.814 2.813zm19.553 0h-14.94a10.95 10.95 0 01-.511-.544 4.663 4.663 0 00.588-2.271v-8.255H45.56a10.63 10.63 0 01-2.544 11.07zm0 0" class="prefix__cls-1" data-name="Path 24" transform="translate(.001 -107.421)"/>
    <path id="prefix__Path_25" d="M161.687 388.57a.937.937 0 10-.663.275.942.942 0 00.663-.275zm0 0" class="prefix__cls-1" data-name="Path 25" transform="translate(-145.066 -350.709)"/>
    <path id="prefix__Path_26" d="M236.21 101.2a3.19 3.19 0 10-3.19-3.19 3.193 3.193 0 003.19 3.19zm0-4.5a1.313 1.313 0 11-1.314 1.314 1.315 1.315 0 011.314-1.314zm0 0" class="prefix__cls-1" data-name="Path 26" transform="translate(-211.157 -85.974)"/>
    <path id="prefix__Path_27" d="M131.029 25.668a3 3 0 10-3-3 3.005 3.005 0 003 3zm0-4.128a1.126 1.126 0 11-1.126 1.126 1.127 1.127 0 011.126-1.125zm0 0" class="prefix__cls-1" data-name="Path 27" transform="translate(-116.015 -17.866)"/>
    <path id="prefix__Path_28" d="M323.869 6.5a3 3 0 10-3-3 3.005 3.005 0 003 3zm0-4.128a1.126 1.126 0 11-1.126 1.128 1.127 1.127 0 011.126-1.124zm0 0" class="prefix__cls-1" data-name="Path 28" transform="translate(-290.762 -.5)"/>
    <path id="prefix__Path_29" d="M261.286 36.708a.938.938 0 10-.663-.275.946.946 0 00.663.275zm0 0" class="prefix__cls-1" data-name="Path 29" transform="translate(-235.921 -31.611)"/>
    <path id="prefix__Path_30" d="M204.29 75.7a.938.938 0 10-.663-.275.944.944 0 00.663.275zm0 0" class="prefix__cls-1" data-name="Path 30" transform="translate(-184.273 -66.948)"/>
    <path id="prefix__Path_31" d="M204.29 158.7a.938.938 0 10-.663-.275.944.944 0 00.663.275zm0 0" class="prefix__cls-1" data-name="Path 31" transform="translate(-184.273 -142.157)"/>
    <path id="prefix__Path_32" d="M400.618 78.7a.938.938 0 10-.663-.275.945.945 0 00.663.275zm0 0" class="prefix__cls-1" data-name="Path 32" transform="translate(-362.18 -69.667)"/>
    <path id="prefix__Path_33" d="M89.3 87.364a.938.938 0 10-.663-.275.943.943 0 00.663.275zm0 0" class="prefix__cls-1" data-name="Path 33" transform="translate(-80.069 -77.514)"/>
    <path id="prefix__Path_34" d="M114.637 162.7a.938.938 0 10-.663-.275.945.945 0 00.663.275zm0 0" class="prefix__cls-1" data-name="Path 34" transform="translate(-103.031 -145.782)"/>
    <path id="prefix__Path_35" d="M113.974 343.234a.937.937 0 10-.275-.663.945.945 0 00.275.663zm0 0" class="prefix__cls-1" data-name="Path 35" transform="translate(-103.032 -309.626)"/>
    <path id="prefix__Path_36" d="M100.306 448.737a.937.937 0 10.663-.275.943.943 0 00-.663.275zm0 0" class="prefix__cls-1" data-name="Path 36" transform="translate(-90.646 -406.432)"/>
    <path id="prefix__Path_37" d="M241.679 330.075a.941.941 0 10-.663.274.948.948 0 00.663-.274zm0 0" class="prefix__cls-1" data-name="Path 37" transform="translate(-217.553 -297.701)"/>
    <path id="prefix__Path_38" d="M246.958 420.465a.938.938 0 10.663.275.945.945 0 00-.663-.275zm0 0" class="prefix__cls-1" data-name="Path 38" transform="translate(-222.937 -381.062)"/>
    <path id="prefix__Path_39" d="M329.56 401.723a.938.938 0 10-.275.663.944.944 0 00.275-.663zm0 0" class="prefix__cls-1" data-name="Path 39" transform="translate(-296.94 -363.229)"/>
    <path id="prefix__Path_40" d="M343.8 452.461a.937.937 0 10.664.275.941.941 0 00-.664-.275zm0 0" class="prefix__cls-1" data-name="Path 40" transform="translate(-310.694 -410.056)"/>
    <path id="prefix__Path_41" d="M417.274 434.8a.937.937 0 10.664.275.941.941 0 00-.664-.275zm0 0" class="prefix__cls-1" data-name="Path 41" transform="translate(-377.274 -394.057)"/>
    <path id="prefix__Path_42" d="M374.95 321.349a.937.937 0 10-.663-.274.944.944 0 00.663.274zm0 0" class="prefix__cls-1" data-name="Path 42" transform="translate(-338.921 -289.546)"/>
    <path id="prefix__Path_43" d="M374.95 207.4a.937.937 0 10-.663-.274.944.944 0 00.663.274zm0 0" class="prefix__cls-1" data-name="Path 43" transform="translate(-338.921 -186.284)"/>
</svg>
