<svg xmlns="http://www.w3.org/2000/svg" width="25.458" height="29.234" viewBox="0 0 25.458 29.234">
  <g id="Group_176" data-name="Group 176" transform="translate(-41.205 -254.383)">
    <path id="Path_160" data-name="Path 160" d="M120.517,94.588a6.858,6.858,0,0,1,2.071-3.167,8.32,8.32,0,0,0,2.984-6.395,8.406,8.406,0,1,0-13.825,6.395,6.535,6.535,0,0,1,2.132,3.167Z" transform="translate(-63.233 182.147)" fill="#ffd15c"/>
    <path id="Path_161" data-name="Path 161" d="M201.508,226.644h.548l-2.436-9.075h.183a1.2,1.2,0,0,0,.853-.365.589.589,0,0,1,.853,0,1.04,1.04,0,0,0,1.583,0,.553.553,0,0,1,.426-.183.658.658,0,0,1,.426.183,1.106,1.106,0,0,0,.853.365h.183l-2.375,9.075h.548l2.5-9.5c0-.122,0-.244-.122-.3a.268.268,0,0,0-.3.061.527.527,0,0,1-.365.183.81.81,0,0,1-.487-.183,1.04,1.04,0,0,0-1.584,0,.589.589,0,0,1-.853,0,.982.982,0,0,0-.792-.365h0a.982.982,0,0,0-.792.365.692.692,0,0,1-.487.183.434.434,0,0,1-.365-.183.268.268,0,0,0-.3-.061.222.222,0,0,0-.122.3Z" transform="translate(-148.367 50.213)" fill="#fff"/>
    <g id="Group_75" data-name="Group 75" transform="translate(50.645 276.674)">
      <path id="Path_162" data-name="Path 162" d="M222.933,489.6a2.033,2.033,0,0,0,3.776,0Z" transform="translate(-221.532 -483.936)" fill="#344a5e"/>
      <path id="Path_163" data-name="Path 163" d="M203.942,396.125H199.5a1.092,1.092,0,0,1-1.1-1.1V390.4h6.639v4.629A1.092,1.092,0,0,1,203.942,396.125Z" transform="translate(-198.4 -390.4)" fill="#344a5e"/>
    </g>
    <g id="Group_76" data-name="Group 76" transform="translate(49.975 277.648)">
      <path id="Path_164" data-name="Path 164" d="M193.915,408.807h-6.578a.676.676,0,0,1-.67-.67h0a.676.676,0,0,1,.67-.67h6.578a.676.676,0,0,1,.67.67h0A.676.676,0,0,1,193.915,408.807Z" transform="translate(-186.667 -407.467)" fill="#415a6b"/>
      <path id="Path_165" data-name="Path 165" d="M193.915,446.141h-6.578a.676.676,0,0,1-.67-.67h0a.676.676,0,0,1,.67-.67h6.578a.676.676,0,0,1,.67.67h0A.676.676,0,0,1,193.915,446.141Z" transform="translate(-186.667 -442.669)" fill="#415a6b"/>
    </g>
    <g id="Group_77" data-name="Group 77" transform="translate(41.205 254.383)">
      <path id="Path_166" data-name="Path 166" d="M245.942,0a.61.61,0,0,0-.609.609V2.68a.61.61,0,0,0,.609.609.575.575,0,0,0,.609-.609V.609A.61.61,0,0,0,245.942,0Z" transform="translate(-233.213)" fill="#ffd15c"/>
      <path id="Path_167" data-name="Path 167" d="M95.969,62.049a.6.6,0,1,0-.853.853l1.462,1.462a.6.6,0,1,0,.853-.853Z" transform="translate(-91.402 -58.334)" fill="#ffd15c"/>
      <path id="Path_168" data-name="Path 168" d="M35.746,212.267H33.675a.61.61,0,0,0-.609.609h0a.61.61,0,0,0,.609.609h2.071a.61.61,0,0,0,.609-.609h0A.655.655,0,0,0,35.746,212.267Z" transform="translate(-33.066 -200.147)" fill="#ffd15c"/>
      <path id="Path_169" data-name="Path 169" d="M96.577,337.25l-1.462,1.462a.6.6,0,1,0,.853.853L97.43,338.1a.6.6,0,0,0-.853-.853Z" transform="translate(-91.4 -317.821)" fill="#ffd15c"/>
      <path id="Path_170" data-name="Path 170" d="M371.168,337.25a.6.6,0,1,0-.853.853l1.462,1.462a.6.6,0,0,0,.853-.853Z" transform="translate(-350.887 -317.821)" fill="#ffd15c"/>
      <path id="Path_171" data-name="Path 171" d="M424.013,212.267h-2.071a.61.61,0,0,0-.609.609h0a.61.61,0,0,0,.609.609h2.071a.61.61,0,0,0,.609-.609h0A.61.61,0,0,0,424.013,212.267Z" transform="translate(-399.164 -200.147)" fill="#ffd15c"/>
      <path id="Path_172" data-name="Path 172" d="M371.777,62.05l-1.462,1.462a.6.6,0,0,0,.853.853L372.63,62.9a.6.6,0,1,0-.853-.853Z" transform="translate(-350.887 -58.335)" fill="#ffd15c"/>
    </g>
  </g>
</svg>
