<svg xmlns="http://www.w3.org/2000/svg" id="prefix__placement" width="15.999" height="15.999" viewBox="0 0 15.999 15.999">
    <defs>
        <style>
            .prefix__cls-1{fill:#fff}
        </style>
    </defs>
    <path id="prefix__Path_88" d="M14.275 0H1.724A1.726 1.726 0 000 1.724v10.543a1.726 1.726 0 001.724 1.724h4.8v1.071H3.983a.469.469 0 000 .937h8.033a.469.469 0 000-.937H9.472v-1.071h4.8A1.726 1.726 0 0016 12.267V1.724A1.726 1.726 0 0014.275 0zm-5.74 15.062H7.464v-1.071h1.071zm6.527-2.795a.787.787 0 01-.786.786H1.724a.787.787 0 01-.786-.786V1.724a.787.787 0 01.786-.787h12.551a.787.787 0 01.786.786z" class="prefix__cls-1" data-name="Path 88"/>
    <path id="prefix__Path_89" d="M65.74 64.268a1.472 1.472 0 00-1.076 2.477 1.467 1.467 0 00-.4 1v1a.469.469 0 00.469.469h2.008a.469.469 0 00.469-.469v-1a1.467 1.467 0 00-.4-1 1.472 1.472 0 00-1.076-2.477zm0 .937a.535.535 0 11-.535.535.536.536 0 01.535-.535zm.535 3.079H65.2v-.535a.535.535 0 111.071 0v.535z" class="prefix__cls-1" data-name="Path 89" transform="translate(-62.259 -62.26)"/>
    <path id="prefix__Path_90" d="M193.269 97.337h3.012a.469.469 0 100-.937h-3.012a.469.469 0 000 .937z" class="prefix__cls-1" data-name="Path 90" transform="translate(-186.775 -93.388)"/>
    <path id="prefix__Path_91" d="M197.285 160.668h-4.016a.469.469 0 000 .937h4.016a.469.469 0 100-.937z" class="prefix__cls-1" data-name="Path 91" transform="translate(-186.775 -155.647)"/>
    <path id="prefix__Path_92" d="M354.939 224.936a56.287 56.287 0 00-1.473 3.481v1a.469.469 0 00.469.469h2.008a.469.469 0 00.469-.469v-1a1.469 1.469 0 010-2.008 1.474 1.474 0 00-1.473-1.473zm0 .937a.535.535 0 11-.535.535.536.536 0 01.535-.535zm.535 3.079H354.4v-.535a.535.535 0 111.071 0z" class="prefix__cls-1" data-name="Path 92" transform="translate(-342.421 -217.907)"/>
    <path id="prefix__Path_93" d="M196.281 257.068h-3.012a.469.469 0 100 .937h3.012a.469.469 0 100-.937z" class="prefix__cls-1" data-name="Path 93" transform="translate(-186.775 -249.035)"/>
    <path id="prefix__Path_94" d="M165.152 321.336h-4.016a.469.469 0 100 .937h4.016a.469.469 0 000-.937z" class="prefix__cls-1" data-name="Path 94" transform="translate(-155.646 -311.295)"/>
</svg>
