<svg xmlns="http://www.w3.org/2000/svg" id="prefix__plastic" width="16.575" height="16.575" viewBox="0 0 16.575 16.575">
    <defs>
        <style>
            .prefix__cls-1{fill:#fff}
        </style>
    </defs>
    <g id="prefix__Group_17" data-name="Group 17" transform="translate(1.748 2.443)">
        <g id="prefix__Group_16" data-name="Group 16">
            <path id="prefix__Path_51" d="M60.572 77.258L57.529 75.5a.324.324 0 00-.324 0l-3.043 1.757a.324.324 0 00-.162.28v3.514a.324.324 0 00.162.28l3.038 1.758a.324.324 0 00.324 0l3.043-1.757a.324.324 0 00.162-.28v-3.514a.324.324 0 00-.157-.28zm-3.529 4.99l-2.072-1.2.656-.379a.324.324 0 00-.324-.561l-.656.379V78.1l2.072 1.2-.4.228a.324.324 0 10.324.561l.4-.228zm.324-4.286a.324.324 0 00-.324.324v.449l-2.072-1.2 2.072-1.2V77a.324.324 0 10.647 0v-.654l2.072 1.2-2.072 1.2v-.449a.324.324 0 00-.323-.335zm2.719 2.529l-.484-.28a.324.324 0 10-.324.561l.484.28-2.072 1.2v-2.396l.545.315a.324.324 0 00.324-.561l-.545-.315 2.072-1.2z" class="prefix__cls-1" data-name="Path 51" transform="translate(-54 -75.458)"/>
        </g>
    </g>
    <g id="prefix__Group_19" data-name="Group 19">
        <g id="prefix__Group_18" data-name="Group 18">
            <path id="prefix__Path_52" d="M16.413 9.074l-3.82-2.205v-.362a.113.113 0 01.113-.113h.68a.762.762 0 00.761-.761v-.352l.642-.462a.324.324 0 00.135-.263v-.768h.453a.324.324 0 00.324-.324V1.942h.55a.324.324 0 100-.647H15.7V.324A.324.324 0 0015.377 0h-3.108a.324.324 0 00-.324.324v.971H10.23V.324A.324.324 0 009.906 0H.324A.324.324 0 000 .324v11.913a.324.324 0 00.324.324h7.64v1.392a.324.324 0 00.162.28l3.982 2.3a.324.324 0 00.324 0l3.982-2.3a.324.324 0 00.162-.28v-4.6a.324.324 0 00-.163-.279zM14.276 4.39l-.453.326-.453-.326v-.6h.906zM12.593.647h2.46V3.14h-2.46zM8.007 9.179a.322.322 0 00-.043.169v2.565H.647V.647h8.935v.647H6.28a.324.324 0 000 .647h3.3v5.1a.324.324 0 10.647 0v-5.1h1.716v1.523a.324.324 0 00.324.324h.453v.768a.324.324 0 00.135.263l.642.462v.352a.113.113 0 01-.113.113h-.68a.762.762 0 00-.761.761v.362L8.208 9.027a.322.322 0 00-.201.152zm3.939 6.512l-3.335-1.926V9.9l3.334 1.917zm3.982-1.925l-3.335 1.924v-3.873l.658-.378a.324.324 0 00-.323-.561l-.659.379-3.321-1.91 3.321-1.917 3.321 1.917-.485.279a.324.324 0 10.323.561l.5-.287z" class="prefix__cls-1" data-name="Path 52"/>
        </g>
    </g>
    <g id="prefix__Group_21" data-name="Group 21" transform="translate(13.817 10.23)">
        <g id="prefix__Group_20" data-name="Group 20">
            <path id="prefix__Path_53" d="M427.353 316.095a.324.324 0 10.095.229.326.326 0 00-.095-.229z" class="prefix__cls-1" data-name="Path 53" transform="translate(-426.8 -316)"/>
        </g>
    </g>
    <g id="prefix__Group_23" data-name="Group 23" transform="translate(4.788 1.295)">
        <g id="prefix__Group_22" data-name="Group 22">
            <path id="prefix__Path_54" d="M148.452 40.095a.323.323 0 10.095.229.326.326 0 00-.095-.229z" class="prefix__cls-1" data-name="Path 54" transform="translate(-147.899 -40)"/>
        </g>
    </g>
</svg>
