<svg xmlns="http://www.w3.org/2000/svg" id="prefix__plugin" width="17.15" height="17.15" viewBox="0 0 17.15 17.15">
    <g id="prefix__Group_24" data-name="Group 24">
        <path id="prefix__Path_55" d="M15.033 9.077h1.614a.5.5 0 00.5-.5V3.731a.5.5 0 00-.5-.5h-4.341V2.117a2.117 2.117 0 00-4.234 0v1.112H3.731a.5.5 0 00-.5.5v4.343H2.117a2.117 2.117 0 000 4.234h1.112v4.341a.5.5 0 00.5.5h4.846a.5.5 0 00.5-.5v-1.614a1.112 1.112 0 012.224 0v1.614a.5.5 0 00.5.5h4.843a.5.5 0 00.5-.5V11.8a.5.5 0 00-.5-.5h-1.609a1.112 1.112 0 110-2.224zm0 3.229h1.112v3.839h-3.839v-1.112a2.117 2.117 0 00-4.234 0v1.112H4.234V11.8a.5.5 0 00-.5-.5H2.117a1.112 1.112 0 010-2.224h1.614a.5.5 0 00.5-.5V4.234h4.344a.5.5 0 00.5-.5V2.117a1.112 1.112 0 012.224 0v1.614a.5.5 0 00.5.5h4.341v3.841h-1.107a2.117 2.117 0 100 4.234z" data-name="Path 55" style="fill:#fff"/>
    </g>
</svg>
