<svg xmlns="http://www.w3.org/2000/svg" width="15.493" height="16.561" viewBox="0 0 15.493 16.561">
    <path id="prefix__population" d="M18.493 8.746a7.746 7.746 0 10-14.959 2.829v.911a.8.8 0 00.8.8.792.792 0 00.267-.049v2.453a.8.8 0 101.6 0v-1.067a.267.267 0 01.534 0v1.6a.8.8 0 001.6 0v-1.066a.267.267 0 11.534 0v1.6a.8.8 0 101.6 0v-1.066a.267.267 0 11.534 0v1.069a.8.8 0 101.6 0v-1.6a.267.267 0 01.534 0v1.068a.8.8 0 001.6 0v-1.6a.267.267 0 11.534 0v1.068a.8.8 0 101.6 0v-2.458a.792.792 0 00.267.049.8.8 0 00.8-.8v-.91a7.708 7.708 0 00.534-2.83zm-.649 1.279a1.6 1.6 0 00-1.488-1.012h-.145a1.6 1.6 0 00.387-.8h1.338c.013.177.022.354.022.534a7.245 7.245 0 01-.114 1.278zM5.4 7.945a1.069 1.069 0 012-.52 1.584 1.584 0 00-.356 1.417 1.065 1.065 0 01-1.645-.9zm2.137.534a1.068 1.068 0 012-.52 1.585 1.585 0 00-.356 1.417 1.065 1.065 0 01-1.645-.9zm2.137.534a1.068 1.068 0 111.068 1.068 1.07 1.07 0 01-1.064-1.068zm2.276-1.055a1.071 1.071 0 11.356 1.418 1.583 1.583 0 00-.356-1.418zm5.929-.28H16.6a1.6 1.6 0 00-1.58-1.336 1.585 1.585 0 00-.534.1v-.367a.267.267 0 01.267-.267.8.8 0 00.8-.8V4.74a.267.267 0 01.267-.267h.73a7.175 7.175 0 011.329 3.205zm-3.793-.253a1.071 1.071 0 11.356 1.417 1.585 1.585 0 00-.356-1.417zm2.03-3.486h-.295a.8.8 0 00-.8.8v.267a.267.267 0 01-.267.267.8.8 0 00-.8.8v.68a1.6 1.6 0 00-.28.331 1.593 1.593 0 00-2.137.534 1.591 1.591 0 00-.522-.185v-.14a.173.173 0 01.05-.12.093.093 0 01.065-.029.667.667 0 00.685-.668.134.134 0 01.134-.134h.668a.8.8 0 00.8-.8V2.049a7.239 7.239 0 012.7 1.889zm-3.233-2.082v3.684a.267.267 0 01-.267.267h-.668a.668.668 0 00-.668.668.134.134 0 01-.134.134.655.655 0 00-.453.181.706.706 0 00-.211.5v.142a1.585 1.585 0 00-.522.185 1.607 1.607 0 00-1.348-.744 1.59 1.59 0 00-.789.209 1.607 1.607 0 00-.453-.467.453.453 0 01.076-.009h1.965a.8.8 0 00.016-1.6.266.266 0 01-.283-.246v-.829a.267.267 0 00-.106-.213 1.058 1.058 0 01-.428-.849V1.857a7.226 7.226 0 014.274 0zM5.149 4.205h1.19a.4.4 0 110 .8H5.8a.668.668 0 00-.668.668.134.134 0 01-.132.135h-.838a7.218 7.218 0 01.987-1.603zm-1.2 2.137H5a.668.668 0 00.668-.668.134.134 0 01.132-.133h.534a.935.935 0 100-1.87h-.706a7.233 7.233 0 012.447-1.622v.821a1.584 1.584 0 00.534 1.188v.7a.8.8 0 00.807.78.267.267 0 01-.006.534H7.443a1 1 0 00-.7.291 1.6 1.6 0 00-1.46 2.647h-.147a1.6 1.6 0 00-1.488 1.011 7.261 7.261 0 01-.114-1.278 7.178 7.178 0 01.413-2.4zm2.524 7.479a.8.8 0 00-.8.8v1.068a.267.267 0 11-.534 0v-5.073H4.6v1.87a.267.267 0 01-.534 0v-1.87a1.07 1.07 0 011.07-1.068h1.337a1.6 1.6 0 00.786-.21 1.611 1.611 0 00.16.21h-.146a1.6 1.6 0 00-1.6 1.6v1.87a.8.8 0 00.8.8.792.792 0 00.267-.049v.1a.786.786 0 00-.268-.047zm2.137.534a.8.8 0 00-.8.8v1.068a.267.267 0 11-.534 0V11.15h-.537v1.87a.267.267 0 11-.534 0v-1.87a1.07 1.07 0 011.068-1.068h1.336a1.6 1.6 0 00.786-.21 1.611 1.611 0 00.16.21h-.144a1.6 1.6 0 00-1.6 1.6v1.87a.8.8 0 00.8.8.792.792 0 00.267-.049v.1a.789.789 0 00-.269-.047zm3.473 2.4a.267.267 0 01-.534 0v-1.064a.8.8 0 10-1.6 0v1.069a.267.267 0 11-.534 0v-5.075h-.538v1.87a.267.267 0 01-.534 0v-1.87a1.07 1.07 0 011.068-1.068h2.671a1.07 1.07 0 011.068 1.068v1.87a.267.267 0 11-.534 0v-1.87h-.534v5.075zm2.137-.534a.267.267 0 01-.534 0v-1.064a.8.8 0 00-.8-.8.792.792 0 00-.267.049v-.1a.786.786 0 00.267.049.8.8 0 00.8-.8v-1.87a1.6 1.6 0 00-1.6-1.6h-.144a1.608 1.608 0 00.16-.21 1.6 1.6 0 00.785.21h1.336a1.07 1.07 0 011.068 1.068v1.87a.267.267 0 11-.534 0V11.15h-.534v5.075zm3.205-3.74a.267.267 0 11-.534 0v-1.87h-.534v5.075a.267.267 0 11-.534 0v-1.063a.8.8 0 00-.8-.8.792.792 0 00-.267.049v-.1a.786.786 0 00.267.049.8.8 0 00.8-.8V11.15a1.6 1.6 0 00-1.6-1.6h-.145a1.587 1.587 0 00.16-.21 1.6 1.6 0 00.786.21h1.336a1.07 1.07 0 011.068 1.068z" transform="translate(-3 -1)" style="fill:#fff"/>
</svg>
