<svg xmlns="http://www.w3.org/2000/svg" width="31.999" height="31.999" viewBox="0 0 31.999 31.999">
  <path id="question" d="M15.936,25.061a1.25,1.25,0,1,1,1.25-1.25A1.25,1.25,0,0,1,15.936,25.061Zm1.25-5.625V17.758A5.211,5.211,0,1,0,12.27,8.97a5.118,5.118,0,0,0-1.583,3.716,1.25,1.25,0,0,0,2.5,0A2.639,2.639,0,0,1,14,10.771,2.765,2.765,0,0,1,16.045,10a2.7,2.7,0,0,1,.494,5.341,2.337,2.337,0,0,0-1.853,2.293v1.8a1.25,1.25,0,0,0,2.5,0Zm7.091,10.256a1.25,1.25,0,1,0-1.3-2.138,13.618,13.618,0,1,1,4.227-4.063,1.25,1.25,0,1,0,2.078,1.389,15.991,15.991,0,0,0-24.6-20.2A16,16,0,0,0,24.277,29.693Zm0,0" transform="translate(0.001 0)" fill="#333" opacity="0.7"/>
</svg>
