<svg xmlns="http://www.w3.org/2000/svg" width="29.07" height="29.071" viewBox="0 0 29.07 29.071">
  <g id="repair" transform="translate(-0.5 0.001)" opacity="0.5">
    <path id="Path_108" data-name="Path 108" d="M337.908,155.148a.568.568,0,1,0,.568.568A.568.568,0,0,0,337.908,155.148Zm0,0" transform="translate(-317.715 -146.34)"/>
    <path id="Path_109" data-name="Path 109" d="M156.213,336.84a.568.568,0,1,0,.568.568A.568.568,0,0,0,156.213,336.84Zm0,0" transform="translate(-146.336 -317.715)"/>
    <path id="Path_110" data-name="Path 110" d="M28.864,3.492a.567.567,0,0,0-.531.153L25.979,6.018H24.85L23.608,4.731V3.586l2.32-2.355A.568.568,0,0,0,25.705.3a5.682,5.682,0,0,0-7.3,6.853l-4.182,4.182L7.256,4.347V2.976a.568.568,0,0,0-.276-.487L2.966.08a.567.567,0,0,0-.694.085L.667,1.771a.568.568,0,0,0-.085.694L2.99,6.48a.568.568,0,0,0,.487.276h1.37l6.968,6.984L7.649,17.906A5.681,5.681,0,0,0,.8,25.2a.568.568,0,0,0,.941.219l2.354-2.372H5.225l1.293,1.293v1.135L4.146,27.832a.568.568,0,0,0,.219.941A5.679,5.679,0,0,0,10.786,26.7a5.614,5.614,0,0,0,.877-4.785l3.346-3.346.767.833-.352.352a.568.568,0,0,0,.8.8l.318-.318,7.192,7.812.016.017a3.407,3.407,0,0,0,4.818-4.818l-.018-.017L20.73,16.059l.315-.315a.568.568,0,0,0-.8-.8l-.349.35-.834-.766,3.362-3.362a5.681,5.681,0,0,0,6.853-7.3.567.567,0,0,0-.409-.372ZM5.484,5.787a.562.562,0,0,0-.4-.161H3.8L1.783,2.261l.979-.979L6.121,3.3V4.582a.568.568,0,0,0,.166.4l7.135,7.151-.8.8ZM19.927,16.862l7.851,7.2a2.271,2.271,0,0,1-3.213,3.212l-7.215-7.837Zm-.837-.769L16.58,18.6l-.767-.833,2.442-2.442Zm4.8-5.875a4.538,4.538,0,0,1-1.451-.237.569.569,0,0,0-.583.137L10.62,21.358a.568.568,0,0,0-.137.583,4.547,4.547,0,0,1-4.306,5.993,4.651,4.651,0,0,1-.5-.027l1.8-1.789a.568.568,0,0,0,.168-.4V24.109a.568.568,0,0,0-.166-.4L5.862,22.082a.568.568,0,0,0-.4-.166H3.854a.568.568,0,0,0-.4.168l-1.789,1.8a4.593,4.593,0,0,1-.027-.5,4.547,4.547,0,0,1,5.994-4.306.567.567,0,0,0,.583-.137L19.45,7.711a.568.568,0,0,0,.137-.583,4.546,4.546,0,0,1,4.305-5.993,4.64,4.64,0,0,1,.51.028L22.636,2.955a.567.567,0,0,0-.163.4V4.96a.567.567,0,0,0,.159.394L24.2,6.98a.567.567,0,0,0,.409.173h1.606a.567.567,0,0,0,.4-.168l1.789-1.8a4.594,4.594,0,0,1,.027.5,4.547,4.547,0,0,1-4.542,4.542Zm0,0" transform="translate(0 0)"/>
    <path id="Path_111" data-name="Path 111" d="M191.2,183.592,184.09,190.7a.568.568,0,0,0,.8.8L192,184.395a.568.568,0,1,0-.8-.8Zm0,0" transform="translate(-173.01 -173.011)"/>
    <path id="Path_112" data-name="Path 112" d="M350.564,351.143a.568.568,0,1,0,.8-.8l-5.118-5.1a.568.568,0,0,0-.8.8Zm0,0" transform="translate(-325.203 -325.48)"/>
  </g>
</svg>
