<svg xmlns="http://www.w3.org/2000/svg" width="28.89" height="28.89" viewBox="0 0 28.89 28.89">
  <g id="report" transform="translate(0 0)" opacity="0.5">
    <g id="Group_28" data-name="Group 28">
      <g id="Group_27" data-name="Group 27">
        <path id="Path_102" data-name="Path 102" d="M28.325,11.779H24.714a.564.564,0,0,0-.564.564v2.849a.564.564,0,0,0,1.129,0V12.907h2.483V27.761H25.278V19.424a.564.564,0,0,0-1.129,0v8.337H23.021V16.081a.564.564,0,0,0-.564-.564H18.846a.564.564,0,0,0-.564.564v11.68H17.153v-7.73a.564.564,0,0,0-.564-.564H12.978a.564.564,0,0,0-.564.564v7.73H11.285V23.268a.564.564,0,0,0-.564-.564H7.11a.564.564,0,0,0-.564.564v4.493H1.693a.565.565,0,0,1-.564-.564V1.693a.565.565,0,0,1,.564-.564H16.249V4.853a1.7,1.7,0,0,0,1.693,1.693h3.724v6.94a.564.564,0,1,0,1.129,0v-7.5a.564.564,0,0,0-.165-.4L17.212.165a.564.564,0,0,0-.4-.165H1.693A1.7,1.7,0,0,0,0,1.693V27.2A1.7,1.7,0,0,0,1.693,28.89H28.325a.564.564,0,0,0,.564-.564V12.343A.564.564,0,0,0,28.325,11.779ZM17.378,1.927l3.49,3.49H17.942a.565.565,0,0,1-.564-.564ZM10.157,27.761H7.674V23.833h2.483Zm5.868,0H13.542V20.6h2.483Zm5.868,0H19.41V16.645h2.483Z"/>
      </g>
    </g>
    <g id="Group_30" data-name="Group 30" transform="translate(24.15 16.639)">
      <g id="Group_29" data-name="Group 29">
        <path id="Path_103" data-name="Path 103" d="M428.963,295.055a.564.564,0,1,0,.165.4A.566.566,0,0,0,428.963,295.055Z" transform="translate(-428 -294.89)"/>
      </g>
    </g>
    <g id="Group_32" data-name="Group 32" transform="translate(3.025 3.088)">
      <g id="Group_31" data-name="Group 31">
        <path id="Path_104" data-name="Path 104" d="M58.792,54.729a.564.564,0,0,0-.564.564v1.015a5.19,5.19,0,1,0,5.723,5.723h1.015a.564.564,0,0,0,.564-.564A6.746,6.746,0,0,0,58.792,54.729Zm0,10.8a4.061,4.061,0,0,1-.564-8.083v4.022a.564.564,0,0,0,.564.564h4.022A4.068,4.068,0,0,1,58.792,65.529Zm.564-4.625h0V55.886A5.621,5.621,0,0,1,64.374,60.9Z" transform="translate(-53.602 -54.729)"/>
      </g>
    </g>
    <g id="Group_34" data-name="Group 34" transform="translate(3.047 16.603)">
      <g id="Group_33" data-name="Group 33">
        <path id="Path_105" data-name="Path 105" d="M65.341,294.25H54.564a.564.564,0,1,0,0,1.128H65.341a.564.564,0,1,0,0-1.128Z" transform="translate(-54 -294.25)"/>
      </g>
    </g>
    <g id="Group_36" data-name="Group 36" transform="translate(3.047 19.326)">
      <g id="Group_35" data-name="Group 35">
        <path id="Path_106" data-name="Path 106" d="M58.175,342.5H54.564a.564.564,0,1,0,0,1.129h3.611a.564.564,0,0,0,0-1.129Z" transform="translate(-54 -342.5)"/>
      </g>
    </g>
    <g id="Group_38" data-name="Group 38" transform="translate(9.484 19.326)">
      <g id="Group_37" data-name="Group 37">
        <path id="Path_107" data-name="Path 107" d="M169.043,342.665a.564.564,0,1,0,.165.4A.568.568,0,0,0,169.043,342.665Z" transform="translate(-168.08 -342.5)"/>
      </g>
    </g>
  </g>
</svg>
