<svg xmlns="http://www.w3.org/2000/svg" width="14.701" height="18" viewBox="0 0 14.701 18">
  <g id="trash" transform="translate(0 0)" opacity="0.6">
    <path id="Path_197" data-name="Path 197" d="M14.655,4.023l-.4-1.191a1.108,1.108,0,0,0-1.053-.759H9.865V.985A.987.987,0,0,0,8.88,0H5.821a.987.987,0,0,0-.985.986V2.073H1.5a1.108,1.108,0,0,0-1.053.759l-.4,1.191A.892.892,0,0,0,.891,5.2h.415L2.221,16.5A1.636,1.636,0,0,0,3.842,18h7.2a1.636,1.636,0,0,0,1.621-1.5L13.579,5.2h.23a.892.892,0,0,0,.846-1.174ZM5.89,1.054H8.81V2.073H5.89Zm5.724,15.364a.575.575,0,0,1-.57.527h-7.2a.575.575,0,0,1-.57-.527L2.365,5.2H12.521ZM1.117,4.142l.326-.977A.055.055,0,0,1,1.5,3.128h11.71a.055.055,0,0,1,.052.038l.326.977Zm0,0" transform="translate(0)"/>
    <path id="Path_198" data-name="Path 198" d="M268.8,176.137h.028a.527.527,0,0,0,.526-.5l.5-9.506a.527.527,0,0,0-1.053-.055l-.5,9.506a.527.527,0,0,0,.5.554Zm0,0" transform="translate(-258.864 -159.756)"/>
    <path id="Path_199" data-name="Path 199" d="M106.313,175.641a.527.527,0,0,0,.526.5h.029a.527.527,0,0,0,.5-.555l-.519-9.506a.527.527,0,0,0-1.053.057Zm0,0" transform="translate(-102.075 -159.758)"/>
    <path id="Path_200" data-name="Path 200" d="M194.781,176.14a.527.527,0,0,0,.527-.527v-9.506a.527.527,0,0,0-1.055,0v9.506A.527.527,0,0,0,194.781,176.14Zm0,0" transform="translate(-187.425 -159.758)"/>
  </g>
</svg>
