<svg xmlns="http://www.w3.org/2000/svg" id="prefix__user" width="23" height="17.07" viewBox="0 0 23 17.07">
    <defs>
        <style>
            .prefix__cls-1{fill:#fff}
        </style>
    </defs>
    <path id="prefix__Path_85" d="M432.426 360h-.012a.449.449 0 000 .9h.012a.449.449 0 000-.9zm0 0" class="prefix__cls-1" data-name="Path 85" transform="translate(-412.56 -343.828)"/>
    <path id="prefix__Path_86" d="M21.337 12.029a2.053 2.053 0 00-1.549-3.384h-.019a2.6 2.6 0 00-1.192-.945 2.053 2.053 0 00-1.552-3.381h-.019a2.6 2.6 0 00-1.192-.942 2.039 2.039 0 10-3.1 0 2.6 2.6 0 00-1.191.942h-.039a2.6 2.6 0 00-1.192-.942 2.039 2.039 0 10-3.1 0 2.6 2.6 0 00-1.191.942h-.026a2.042 2.042 0 00-.327.026.449.449 0 00.145.887 1.133 1.133 0 01.182-.015 1.153 1.153 0 11-1.053 1.6.449.449 0 10-.831.343 2.064 2.064 0 00.33.543 2.6 2.6 0 00-1.19.941h-.019a2.053 2.053 0 00-1.549 3.384A2.614 2.614 0 000 14.46v1.263a1.349 1.349 0 001.348 1.347h16.711a.449.449 0 100-.9h-.584v-1.71a1.714 1.714 0 011.712-1.712h1.2A1.714 1.714 0 0122.1 14.46v1.263a.45.45 0 01-.449.449h-.5a.449.449 0 100 .9h.5A1.349 1.349 0 0023 15.723V14.46a2.614 2.614 0 00-1.663-2.432zm-.408-1.329a1.141 1.141 0 11-1.141-1.153 1.148 1.148 0 011.141 1.153zm-2.763-4.326a1.141 1.141 0 11-1.141-1.153 1.148 1.148 0 011.141 1.153zM14.263.9a1.153 1.153 0 11-1.141 1.153A1.148 1.148 0 0114.263.9zm-.618 3.2h1.236a1.681 1.681 0 011.165.472 2.056 2.056 0 00-.572 3.128 2.6 2.6 0 00-1.191.942h-.039a2.6 2.6 0 00-1.192-.942 2.056 2.056 0 00-.572-3.128 1.682 1.682 0 011.165-.472zm.618 7.746A1.153 1.153 0 1115.4 10.7a1.148 1.148 0 01-1.137 1.15zM11.5 13a2.624 2.624 0 00-1.214-.969A2.056 2.056 0 009.717 8.9a1.681 1.681 0 011.165-.472h1.236a1.681 1.681 0 011.165.472 2.056 2.056 0 00-.569 3.131A2.624 2.624 0 0011.5 13zm-3.9-2.3a1.141 1.141 0 111.138 1.15A1.148 1.148 0 017.6 10.7zm3.9-5.475a1.153 1.153 0 11-1.141 1.153A1.148 1.148 0 0111.5 5.221zM8.738.9A1.153 1.153 0 117.6 2.052 1.148 1.148 0 018.738.9zM6.954 4.576A1.682 1.682 0 018.119 4.1h1.237a1.682 1.682 0 011.165.472A2.056 2.056 0 009.948 7.7a2.6 2.6 0 00-1.191.942h-.039A2.6 2.6 0 007.527 7.7a2.056 2.056 0 00-.572-3.128zm-1.6 3.85h1.239a1.681 1.681 0 011.165.474 2.056 2.056 0 00-.569 3.131A2.626 2.626 0 005.975 13a2.624 2.624 0 00-1.213-.969 2.056 2.056 0 00-.57-3.131 1.682 1.682 0 011.165-.472zM3.212 9.543A1.153 1.153 0 112.071 10.7a1.148 1.148 0 011.141-1.157zM.9 15.723V14.46a1.714 1.714 0 011.712-1.712h1.2a1.714 1.714 0 011.714 1.712v1.712H1.348a.45.45 0 01-.448-.449zm5.524-1.263a1.714 1.714 0 011.712-1.712h1.2a1.714 1.714 0 011.712 1.712v1.712H6.424zm5.525 0a1.714 1.714 0 011.712-1.712h1.2a1.714 1.714 0 011.712 1.712v1.712h-4.624zM17.026 13a2.624 2.624 0 00-1.214-.969 2.056 2.056 0 00-.569-3.131 1.681 1.681 0 011.165-.472h1.236a1.681 1.681 0 011.165.472 2.056 2.056 0 00-.569 3.131 2.624 2.624 0 00-1.214.969zm0 0" class="prefix__cls-1" data-name="Path 86"/>
    <path id="prefix__Path_87" d="M90.4 119.434a.442.442 0 00.163.031.452.452 0 00.42-.285v-.007a.449.449 0 00-.837-.326v.007a.447.447 0 00.254.58zm0 0" class="prefix__cls-1" data-name="Path 87" transform="translate(-86.068 -113.237)"/>
</svg>
