<svg xmlns="http://www.w3.org/2000/svg" id="prefix__wheel" width="17.317" height="17.317" viewBox="0 0 17.317 17.317">
    <defs>
        <style>
            .prefix__cls-1{fill:#fff}
        </style>
    </defs>
    <path id="prefix__Path_95" d="M137.749 133.609a4.139 4.139 0 104.139 4.139 4.144 4.144 0 00-4.139-4.139zm0 7.244a3.1 3.1 0 113.1-3.1 3.108 3.108 0 01-3.1 3.1zm0 0" class="prefix__cls-1" data-name="Path 95" transform="translate(-129.09 -129.09)"/>
    <path id="prefix__Path_96" d="M16.909 6.687L15.578 6.4a7.243 7.243 0 00-.428-1.033l.737-1.146a.518.518 0 00-.069-.646L13.744 1.5a.518.518 0 00-.644-.07l-1.146.737a7.243 7.243 0 00-1.033-.428L10.63.407A.517.517 0 0010.124 0H7.192a.517.517 0 00-.506.407L6.4 1.738a7.243 7.243 0 00-1.033.428L4.218 1.43a.518.518 0 00-.646.069L1.5 3.573a.518.518 0 00-.069.646l.737 1.146a7.243 7.243 0 00-.43 1.035l-1.331.287A.518.518 0 000 7.192v2.932a.518.518 0 00.407.506l1.331.289a7.243 7.243 0 00.428 1.033L1.43 13.1a.518.518 0 00.069.646l2.073 2.073a.518.518 0 00.646.069l1.146-.737a7.243 7.243 0 001.033.428l.289 1.331a.517.517 0 00.506.407h2.932a.517.517 0 00.506-.407l.289-1.331a7.243 7.243 0 001.033-.428l1.146.737a.517.517 0 00.646-.069l2.073-2.073a.518.518 0 00.069-.646l-.737-1.146a7.243 7.243 0 00.428-1.033l1.331-.289a.518.518 0 00.407-.506V7.192a.518.518 0 00-.406-.505zm-.627 3.021l-1.22.265a.518.518 0 00-.389.367 6.208 6.208 0 01-.573 1.383.517.517 0 00.015.534l.676 1.051-1.484 1.484-1.051-.676a.517.517 0 00-.534-.015 6.212 6.212 0 01-1.383.573.518.518 0 00-.367.389l-.265 1.22h-2.1l-.265-1.22a.518.518 0 00-.367-.389 6.208 6.208 0 01-1.38-.574.518.518 0 00-.534.015l-1.051.676-1.484-1.484.674-1.051a.517.517 0 00.015-.534 6.215 6.215 0 01-.573-1.383.518.518 0 00-.388-.367l-1.22-.265v-2.1l1.22-.265a.518.518 0 00.389-.367 6.208 6.208 0 01.573-1.383.517.517 0 00-.016-.531l-.674-1.052 1.483-1.483 1.052.674a.517.517 0 00.534.015 6.212 6.212 0 011.383-.573.518.518 0 00.367-.389l.265-1.22h2.1l.265 1.22a.518.518 0 00.367.389 6.208 6.208 0 011.383.573.518.518 0 00.534-.015l1.051-.676 1.484 1.484-.676 1.051a.517.517 0 00-.015.534 6.209 6.209 0 01.573 1.383.518.518 0 00.388.367l1.22.265zm0 0" class="prefix__cls-1" data-name="Path 96"/>
</svg>
